<?xml version="1.0" encoding="utf-8"?>
<!-- Generator: Adobe Illustrator 24.0.2, SVG Export Plug-In . SVG Version: 6.00 Build 0)  -->
<svg version="1.1" id="Layer_2" xmlns="http://www.w3.org/2000/svg" xmlns:xlink="http://www.w3.org/1999/xlink" x="0px" y="0px"
	 width="596.1px" height="187.2px" viewBox="0 0 596.1 187.2" style="enable-background:new 0 0 596.1 187.2;" xml:space="preserve"
	>
<style type="text/css">
	.st0{fill:#074C07;}
	.st1{fill:#9E0E0E;}
</style>
<g>
	<g>
		<path class="st0" d="M315.2,131.9l-16.4-26c10.6-0.9,21.4-5.8,21.4-18.7c0-11.7-9.8-18.5-28.3-18.5h-38.3v4.6
			c2.8,0.3,9.9,2.3,9.9,7.5v49.5c0,6.1-5.4,7.5-9.5,7.9v5h31.8v-4.5c-5-1-9.4-3.2-9.4-8.7v-24h7.4l23.1,37.1h20v-4.6
			C323.5,138.3,318.8,137.7,315.2,131.9z M276.5,100.1V81.9c0-5.4,2.8-7.5,11.8-7.5c9.1,0,18,3.5,18,12.9c0,8.6-7.3,12.8-14.6,12.8
			H276.5z"/>
	</g>
	<g>
		<path class="st0" d="M379.5,68.2v4.7c3.8,0.9,9.6,2.5,9.6,8.2v36.3c0,11.9-7.2,18.7-17.2,18.7c-8.4,0-16.7-5.2-16.7-15.6V79.8
			c0-5.2,5.8-6.2,9-7.2v-4.5h-32.4v4.4c3.2,0.8,9.5,2.9,9.5,8.8v39c0,15.1,11.9,24.2,28.5,24.2c16.7,0,27.6-10.1,27.6-26.6V81.1
			c0-5.2,5.4-7.2,9.6-8.4v-4.5H379.5z"/>
	</g>
	<g>
		<path class="st0" d="M460.1,43.9l-12,9.7l-11.3-9.7H433l13.8,19h3.1l13.8-19H460.1z M472.9,120.4l-2.9,4.2c-3.1,4.7-11.1,12-24,12
			h-17.6l46.6-64v-4.6h-52.3l-7.8,17l4.3,1.9l4.1-5.2c3.2-4.1,7.3-7.2,18.3-7.2h15.8l-47.6,64.1v4.1h57.8l9-20.5L472.9,120.4z"/>
	</g>
	<g>
		<path class="st0" d="M519.8,72.8v-4.7h-31.2v4.5c4.9,0.9,8.8,2.3,8.8,7.9v49.9c0,6-4.3,7.1-8.8,7.6v4.5h31.2v-4.5
			c-5-0.5-9.4-2.1-9.4-7.7V80.7C510.4,75.2,515.5,73.5,519.8,72.8z"/>
	</g>
	<g>
		<path class="st0" d="M571.6,41.5c-3,0-5.2,2-6.1,4.6l-5.1,14.1l2.5,1.5l10.1-9.9c2.3-2.3,2.9-3.4,2.9-6
			C575.9,43.3,574,41.5,571.6,41.5z M585,119.9c-1.7,7.3-8,19.5-21.8,19.5c-12.1,0-19.8-10.4-19.8-31.3c0-27.4,7.4-35.2,19.2-35.2
			c8.4,0,16.6,6.7,22.2,14.5l4-2.1l-7.4-18h-4.2l-2.9,2.8c-1.6-1.1-5.7-3.5-13.4-3.5c-20.3,0-32.4,17.2-32.4,40.9
			c0,25.8,15.6,38.3,33.5,38.3c18.5,0,26.7-13.2,29.3-24.1L585,119.9z"/>
	</g>
</g>
<g>
	<g>
		<g>
			<g>
				<path class="st0" d="M114.6,61.1c-0.3,0.1-0.6-0.1-0.8-0.4c-0.1-0.2-2.5-5.8-0.9-10.1c0.1-0.4,0.5-0.5,0.9-0.4
					c0.4,0.1,0.5,0.5,0.4,0.9c-1.4,3.8,0.9,9,0.9,9.1c0.2,0.3,0,0.8-0.4,0.9C114.7,61,114.7,61.1,114.6,61.1z"/>
			</g>
		</g>
		<g>
			<g>
				<path class="st1" d="M113.3,58.2c0,0-2.2,1.2-7,1.5c-3.6,0.2-4.7,8.5,0.8,15.7c5.6,7.2,6.8,8.2,10.3,7.1c3.6-1.1,1.3-1.6,5-1.6
					c3.7,0,6.3-2,7.6-4c1.3-2,4.7-8.5,1.1-17.8c-3.6-9.3-14.1-4.9-15.2-3.1C115.4,56.7,114.7,57.8,113.3,58.2z"/>
			</g>
		</g>
		<g>
			<g>
				<path class="st0" d="M110.1,53c1.1,1.5,1.4,3.2,1.1,4.6c-0.2-0.1-0.3-0.3-0.5-0.4c-0.3-0.3-0.7-0.7-1-1
					c-0.3-0.3-0.6-0.7-0.9-1.1c-0.1-0.2-0.3-0.4-0.4-0.6c-0.1-0.2-0.2-0.4-0.3-0.6c0.1,0.2,0.1,0.4,0.2,0.7c0.1,0.2,0.2,0.4,0.4,0.6
					c0.3,0.4,0.6,0.8,0.9,1.2c0.3,0.4,0.6,0.7,0.9,1.1c0.2,0.2,0.4,0.4,0.5,0.6c-1.6,0-3.4-0.9-4.6-2.5c-1.2-1.6-1.5-3.5-1-5
					C107.1,50.5,108.9,51.4,110.1,53z"/>
			</g>
		</g>
	</g>
	<g>
		<g>
			<g>
				<path class="st0" d="M163.3,60.7c-0.1-0.1-0.2-0.3-0.1-0.5c0.1-0.1,1.7-3.3,4.2-4.2c0.2-0.1,0.4,0,0.5,0.2
					c0.1,0.2,0,0.4-0.2,0.5c-2.2,0.8-3.7,3.8-3.7,3.8C163.8,60.7,163.6,60.8,163.3,60.7C163.3,60.7,163.3,60.7,163.3,60.7z"/>
			</g>
		</g>
		<g>
			<g>
				<path class="st1" d="M164.1,59c0,0-1.4-0.5-3.3-2.6c-1.5-1.6-5.6,1.1-6.7,6.3c-1.1,5.2-1.1,6.1,0.7,7.3c1.8,1.2,1.2,0,2.6,1.6
					c1.4,1.6,3.3,2,4.7,1.9s5.6-1.1,8.4-6.2c2.8-5.1-3.1-8.1-4.4-8C165.5,59.4,164.8,59.5,164.1,59z"/>
			</g>
		</g>
		<g>
			<g>
				<path class="st0" d="M165.2,55.6c-0.2,1-0.9,1.9-1.7,2.2c0-0.1,0-0.3,0-0.4c0-0.3,0-0.6,0.1-0.8c0-0.3,0.1-0.6,0.1-0.8
					c0-0.1,0.1-0.3,0.1-0.4c0-0.1,0.1-0.3,0.2-0.4c-0.1,0.1-0.1,0.2-0.2,0.4c-0.1,0.1-0.1,0.3-0.1,0.4c-0.1,0.3-0.1,0.5-0.2,0.8
					c-0.1,0.3-0.1,0.6-0.1,0.8c0,0.2,0,0.3-0.1,0.5c-0.6-0.8-0.9-1.9-0.6-3c0.3-1.1,1-2,1.9-2.3C165.2,53.3,165.5,54.5,165.2,55.6z"
					/>
			</g>
		</g>
	</g>
	<g>
		<g>
			<g>
				<path class="st0" d="M190,72.7c-0.2,0-0.4-0.2-0.4-0.4c0-0.2-0.7-4,0.9-6.5c0.1-0.2,0.4-0.3,0.6-0.1c0.2,0.1,0.3,0.4,0.1,0.6
					c-1.4,2.2-0.8,5.8-0.8,5.8C190.5,72.5,190.4,72.7,190,72.7C190.1,72.7,190.1,72.7,190,72.7z"/>
			</g>
		</g>
		<g>
			<g>
				<path class="st1" d="M189.6,70.7c0,0-1.6,0.5-4.6-0.1c-2.3-0.4-4.2,4.6-1.8,9.9c2.4,5.3,3,6.1,5.4,6c2.4-0.1,1-0.8,3.3-0.3
					c2.3,0.5,4.2-0.3,5.4-1.4c1.1-1,4.2-4.6,3.3-11c-0.9-6.4-8.1-5.1-9.1-4.2C191.2,70.1,190.5,70.7,189.6,70.7z"/>
			</g>
		</g>
		<g>
			<g>
				<path class="st0" d="M188.4,67.1c0.5,1.1,0.4,2.2,0,3.1c-0.1-0.1-0.2-0.2-0.2-0.3c-0.2-0.3-0.3-0.5-0.5-0.8
					c-0.2-0.3-0.3-0.5-0.4-0.8c-0.1-0.1-0.1-0.3-0.2-0.4c0-0.1-0.1-0.3-0.1-0.4c0,0.1,0,0.3,0.1,0.4c0,0.1,0.1,0.3,0.1,0.4
					c0.1,0.3,0.2,0.6,0.4,0.9c0.1,0.3,0.3,0.6,0.4,0.8c0.1,0.1,0.2,0.3,0.2,0.4c-1-0.3-2-1.1-2.5-2.3c-0.5-1.2-0.4-2.4,0.1-3.3
					C186.9,65,187.9,65.9,188.4,67.1z"/>
			</g>
		</g>
	</g>
	<g>
		<g>
			<g>
				<path class="st0" d="M163,13.4c-0.2,0-0.4-0.2-0.4-0.5c0-0.2-0.2-4.6,1.9-7.1c0.2-0.2,0.5-0.2,0.7-0.1c0.2,0.2,0.2,0.5,0.1,0.7
					c-1.9,2.2-1.7,6.4-1.7,6.4c0,0.3-0.2,0.5-0.5,0.5C163.1,13.4,163,13.4,163,13.4z"/>
			</g>
		</g>
		<g>
			<g>
				<path class="st1" d="M162.8,11c0,0-1.8,0.3-5.1-0.8c-2.5-0.8-5.4,4.6-3.4,10.9c1.9,6.3,2.5,7.3,5.2,7.5c2.7,0.2,1.3-0.8,3.8,0.2
					c2.5,0.9,4.8,0.2,6.2-0.8c1.4-1,5.4-4.6,5.3-11.8s-8.3-6.9-9.6-6C164.6,10.6,163.9,11.1,162.8,11z"/>
			</g>
		</g>
		<g>
			<g>
				<path class="st0" d="M162,6.8c0.4,1.3,0.2,2.5-0.4,3.4c-0.1-0.1-0.1-0.3-0.2-0.4c-0.2-0.3-0.3-0.6-0.4-0.9
					c-0.1-0.3-0.3-0.6-0.4-1c0-0.2-0.1-0.3-0.1-0.5c0-0.2,0-0.3,0-0.5c0,0.2,0,0.3,0,0.5c0,0.2,0,0.3,0.1,0.5c0.1,0.3,0.2,0.7,0.3,1
					c0.1,0.3,0.2,0.7,0.4,1c0.1,0.2,0.1,0.4,0.2,0.5c-1.1-0.4-2.1-1.5-2.5-2.9c-0.4-1.4-0.1-2.8,0.6-3.7
					C160.6,4.3,161.6,5.3,162,6.8z"/>
			</g>
		</g>
	</g>
	<g>
		<path class="st0" d="M191.7,52.9c-2.8,2.9-6.8,4-10.7,3.4c0.2-0.4,0.5-0.8,0.7-1.2c0.5-0.9,1.1-1.8,1.6-2.6
			c0.6-0.9,1.2-1.7,1.9-2.5c0.3-0.4,0.7-0.7,1.1-1.1c0.4-0.3,0.8-0.6,1.3-0.8c-0.5,0.2-1,0.4-1.4,0.7c-0.4,0.3-0.9,0.6-1.3,1
			c-0.8,0.7-1.5,1.5-2.2,2.3c-0.7,0.8-1.3,1.6-2,2.5c-0.3,0.5-0.7,0.9-1,1.4c-1.3-4-0.6-8.5,2.4-11.6c3-3.2,7.6-4.2,11.8-3.2
			C195.4,45.1,194.7,49.7,191.7,52.9z"/>
	</g>
	<g>
		<path class="st0" d="M136,60.6c1.7,3.5,5,5.7,8.8,6.3c-0.1-0.4-0.2-0.9-0.3-1.3c-0.2-1-0.4-2-0.7-2.9c-0.3-1-0.6-1.9-1-2.8
			c-0.2-0.5-0.4-0.9-0.7-1.3c-0.3-0.4-0.6-0.8-1-1.2c0.4,0.3,0.8,0.7,1.1,1.1c0.3,0.4,0.6,0.8,0.9,1.3c0.5,0.9,1,1.8,1.3,2.7
			c0.4,0.9,0.7,1.9,1.1,2.9c0.2,0.5,0.4,1.1,0.5,1.6c2.4-3.3,3.1-7.6,1.2-11.4c-1.8-3.8-5.7-6.2-9.9-6.4
			C134.8,52.3,134.2,56.7,136,60.6z"/>
	</g>
	<g>
		<path class="st0" d="M182.3,105.2c-2,2.4-4.9,3.6-7.7,3.4c0.2-0.3,0.3-0.7,0.5-1c0.4-0.7,0.7-1.4,1.2-2.1c0.4-0.7,0.8-1.4,1.3-2
			c0.2-0.3,0.5-0.6,0.8-0.9c0.3-0.3,0.6-0.5,0.9-0.7c-0.4,0.2-0.7,0.4-1,0.6c-0.3,0.3-0.6,0.5-0.9,0.8c-0.6,0.6-1.1,1.2-1.6,1.9
			c-0.5,0.7-0.9,1.3-1.4,2c-0.2,0.4-0.5,0.7-0.7,1.1c-1-2.9-0.5-6.3,1.6-8.9c2.2-2.6,5.4-3.8,8.5-3.3
			C184.9,99.1,184.5,102.6,182.3,105.2z"/>
	</g>
	<g>
		<path class="st0" d="M174.8,83.1c-2.2,1.9-5.2,2.4-8,1.6c0.2-0.3,0.4-0.6,0.6-0.8c0.4-0.6,0.9-1.2,1.3-1.8c0.5-0.6,1-1.1,1.5-1.6
			c0.3-0.2,0.6-0.5,0.9-0.7c0.3-0.2,0.6-0.4,1-0.5c-0.4,0.1-0.7,0.2-1.1,0.4c-0.3,0.2-0.7,0.4-1,0.6c-0.6,0.4-1.2,0.9-1.7,1.5
			c-0.5,0.5-1.1,1.1-1.6,1.6c-0.3,0.3-0.5,0.6-0.8,0.9c-0.8-3,0-6.2,2.3-8.2c2.4-2.1,5.7-2.5,8.8-1.3
			C177.9,77.8,177.1,81,174.8,83.1z"/>
	</g>
	<g>
		<path class="st0" d="M156.7,43.5c1.4,2.5,4.1,4,7.2,4.2c-0.1-0.3-0.2-0.7-0.2-1c-0.2-0.7-0.4-1.4-0.6-2.1c-0.2-0.7-0.5-1.4-0.8-2
			c-0.2-0.3-0.4-0.6-0.6-0.9c-0.2-0.3-0.5-0.6-0.8-0.8c0.3,0.2,0.6,0.5,0.9,0.7c0.3,0.3,0.5,0.6,0.7,0.9c0.4,0.6,0.8,1.3,1.1,2
			c0.3,0.7,0.6,1.4,0.9,2.1c0.1,0.4,0.3,0.8,0.4,1.1c2-2.6,2.5-5.9,1-8.6c-1.5-2.8-4.6-4.3-8.1-4.2
			C155.8,37.4,155.2,40.7,156.7,43.5z"/>
	</g>
	<g>
		<path class="st0" d="M203.8,49.5c-0.7,2.2,0,4.6,1.6,6.5c0.1-0.2,0.3-0.5,0.4-0.7c0.3-0.5,0.6-1,0.9-1.5c0.3-0.5,0.5-1.1,0.7-1.6
			c0.1-0.3,0.2-0.6,0.2-0.9c0-0.3,0.1-0.6,0-0.9c0.1,0.3,0.1,0.6,0.1,0.9c0,0.3-0.1,0.6-0.1,0.9c-0.1,0.6-0.3,1.2-0.5,1.7
			c-0.2,0.6-0.5,1.1-0.7,1.7c-0.1,0.3-0.3,0.6-0.4,0.9c2.6-0.3,4.8-1.9,5.5-4.2c0.8-2.4-0.1-5.1-2.1-7.1
			C206.8,45.5,204.6,47.1,203.8,49.5z"/>
	</g>
	<g>
		<path class="st0" d="M193.8,26.1c-1.7,2.3-4.7,3.4-7.8,3.1c0.1-0.3,0.2-0.6,0.4-1c0.3-0.7,0.6-1.4,0.9-2c0.3-0.7,0.7-1.3,1.1-1.9
			c0.2-0.3,0.5-0.6,0.7-0.9c0.3-0.3,0.6-0.5,0.9-0.7c-0.4,0.1-0.7,0.4-1,0.6c-0.3,0.2-0.6,0.5-0.8,0.8c-0.5,0.6-1,1.2-1.4,1.8
			c-0.4,0.6-0.8,1.3-1.2,1.9c-0.2,0.4-0.4,0.7-0.6,1.1c-1.6-2.9-1.6-6.2,0.3-8.7c1.9-2.5,5.3-3.6,8.7-3
			C195.7,20.1,195.8,23.5,193.8,26.1z"/>
	</g>
	<g>
		<path class="st0" d="M125.7,36c1.2,2.9,0.6,6.2-1.3,8.9c-0.2-0.3-0.5-0.6-0.7-0.9c-0.5-0.6-1-1.3-1.4-2c-0.4-0.7-0.8-1.4-1.2-2.1
			c-0.2-0.4-0.3-0.7-0.4-1.1c-0.1-0.4-0.2-0.8-0.2-1.2c-0.1,0.4,0,0.9,0,1.3c0.1,0.4,0.2,0.8,0.3,1.2c0.2,0.8,0.6,1.5,0.9,2.3
			c0.4,0.7,0.7,1.5,1.2,2.2c0.2,0.4,0.5,0.8,0.7,1.1c-3.5-0.2-6.6-2-7.9-5.1c-1.3-3.2-0.5-6.8,1.9-9.7C121.2,31,124.3,32.8,125.7,36
			z"/>
	</g>
	<g>
		<path class="st0" d="M144.2,24.1c1,3.5,0,7.2-2.3,9.9c-0.2-0.4-0.4-0.7-0.6-1.1c-0.5-0.8-0.9-1.7-1.3-2.5c-0.4-0.9-0.8-1.7-1-2.6
			c-0.1-0.5-0.2-0.9-0.3-1.4c-0.1-0.5-0.1-0.9,0-1.4c-0.1,0.5-0.1,1-0.1,1.4c0,0.5,0.1,1,0.2,1.4c0.2,0.9,0.4,1.9,0.8,2.8
			c0.3,0.9,0.7,1.8,1,2.7c0.2,0.5,0.4,1,0.6,1.4c-3.8-0.9-6.9-3.5-7.9-7.3c-1.1-3.9,0.2-7.9,3-10.7
			C139.9,17.6,143.1,20.3,144.2,24.1z"/>
	</g>
	<g>
		<path class="st0" d="M206.6,73.7c-1.8,3.1-2.1,6.6-1,9.4c0.3-0.3,0.6-0.6,0.8-0.9c0.6-0.7,1.2-1.4,1.8-2.1
			c0.6-0.7,1.1-1.5,1.6-2.3c0.2-0.4,0.5-0.8,0.7-1.2c0.2-0.4,0.4-0.8,0.4-1.3c0,0.4-0.2,0.9-0.3,1.3c-0.2,0.4-0.3,0.9-0.6,1.3
			c-0.4,0.8-0.9,1.6-1.4,2.4c-0.5,0.8-1.1,1.6-1.6,2.3c-0.3,0.4-0.6,0.8-0.9,1.2c3.3-0.3,6.6-2.3,8.6-5.7c2-3.4,2.1-7.2,0.6-10.2
			C212,68.2,208.6,70.3,206.6,73.7z"/>
	</g>
	<g>
		<path class="st0" d="M127.1,100.4c3,4.3,8,6.5,13.2,6.4c-0.2-0.6-0.4-1.1-0.7-1.7c-0.5-1.3-1-2.5-1.6-3.7c-0.6-1.2-1.2-2.4-2-3.5
			c-0.4-0.6-0.8-1.1-1.2-1.6c-0.5-0.5-1-1-1.6-1.3c0.6,0.3,1.2,0.7,1.7,1.2c0.5,0.5,1,1,1.4,1.5c0.9,1.1,1.7,2.2,2.4,3.3
			c0.7,1.2,1.4,2.3,2.1,3.6c0.4,0.7,0.7,1.3,1,2c2.5-4.9,2.3-10.8-0.9-15.4c-3.3-4.7-9-6.9-14.6-6.3
			C123.7,89.7,123.8,95.7,127.1,100.4z"/>
	</g>
	<path class="st0" d="M280.5,175.9c-0.2-0.1-0.4-0.2-0.6-0.2c-4.2-1.2-6.6-4.8-9.2-8c-1.5-1.9-3.1-3.7-4.6-5.6
		c-1.6-2.1-3.3-4.1-5.3-5.9c-4.3-3.7-9.6-5.5-14.9-7.4c-4.8-1.7-9.1-3.9-13.2-7c-4-3.1-7.8-6.5-11.9-9.4c-4.4-3.1-9.4-5.3-14.7-6.2
		c-5.7-1-11.5-0.7-17.2,0.5c-5,1-10.2,2.8-14.6,5.5c-1.4,0.6-2.6,0.9-3.7,0.9c-3.9,0-5.1-3.8-5.1-3.8c-0.7-3.1-0.8-7-0.8-9.8
		c0-18.8,13.3-29.9,13.3-29.9c-12.5-1-17.3,8.7-17.3,8.7c-1.9-16.4-20.2-16.4-20.2-16.4c15,18.6,13.8,39.2,10.5,52.5
		c-1.7,6.3-9.4,6.2-11.6,6.1c-3.7-1-7.7-1.1-11.5-0.9c-3.1,0.2-6.4,0.5-9.4,1.4c-2.8,0.9-5.4,2.3-8.2,3.3c-1.2,0.5-2.6,0.9-3.9,1
		c-1.1,0.1-2.7-0.1-3.9-0.1c-2.7-0.1-5.4,0-8.1,0.4c-8.6,1.2-16.2,5.7-22,12c-2.8,3.1-5.2,6.5-7.5,10c-1.8,2.7-3.4,5.5-5.4,8.1
		c-0.1,0.1-0.1,0.2-0.1,0.2c-18.1,0.7-36.1,1.6-54.2,2.9c27.1,2,54.1,3,81.2,3.8c27.1,0.7,54.1,1,81.2,1c27.1,0,54.1-0.3,81.2-1
		c27.1-0.7,54.1-1.8,81.2-3.8C313.5,177.4,297,176.5,280.5,175.9z M167.7,173.8c-27.1,0-54.1,0.3-81.2,1c-6.6,0.2-13.2,0.4-19.8,0.6
		c0.8-1.3,1.7-2.6,2.5-3.9c0.9-1.3,1.7-2.7,2.6-4c0.4-0.7,0.9-1.3,1.4-1.9c0.2-0.3,0.5-0.6,0.7-1c0,0,0.1-0.1,0.1-0.1
		c0.2-0.2,0.4-0.4,0.5-0.6c1.1-1.4,2.3-2.7,3.6-4c0.6-0.6,1.3-1.3,2-1.9c0.3-0.3,0.6-0.5,1-0.8c0,0,0.3-0.2,0.4-0.3
		c0.1-0.1,0.3-0.2,0.4-0.3c1.6-1.2,3.4-2.2,5.2-3.1c0.2-0.1,0.3-0.1,0.5-0.2c0,0,0.3-0.1,0.5-0.2c0.4-0.2,0.8-0.3,1.2-0.5
		c1.1-0.4,2.2-0.7,3.3-1c2.4-0.6,3.9-0.8,6.3-0.9c2.6-0.1,5.2,0.4,7.8,0.1c5.9-0.5,10.7-4.2,16.4-5.2c2.8-0.5,5.9-0.6,8.7-0.6
		c2.8,0,5.6,0.4,8.2,1.4c5,2,7.9,6.9,11.6,10.4c5.1,4.9,11.8,7,18.2,9.5c4.1,1.6,9.2,3.9,11.9,7.4
		C177,173.8,172.3,173.8,167.7,173.8z M248.9,174.8c-20.2-0.5-40.5-0.8-60.7-1c-4.5-10.1-16.3-11.2-25.2-16.3
		c-0.6-0.3-9.1-8.1,12.6-19.9c1.5-0.8,2.8-1.4,3.7-1.8c0.9-0.5,1.5-0.7,1.5-0.7c2.3-1,4.6-1.8,7-2.4c5-1.3,10.3-1.9,15.5-1.2
		c5,0.6,9.6,2.5,13.8,5.3c4,2.6,7.5,5.9,11.2,8.8c4.3,3.3,8.7,6,13.8,7.9c4.6,1.7,9.6,3,13.6,5.9c2.2,1.6,4,3.9,5.8,6.1
		c1.7,2.1,3.4,4.1,5.1,6.2c0.9,1.1,1.9,2.5,3,3.8C262.7,175.2,255.8,175,248.9,174.8z"/>
</g>
</svg>
