<?xml version="1.0" encoding="utf-8"?>
<!-- Generator: Adobe Illustrator 24.0.2, SVG Export Plug-In . SVG Version: 6.00 Build 0)  -->
<svg version="1.1" id="Layer_2" xmlns="http://www.w3.org/2000/svg" xmlns:xlink="http://www.w3.org/1999/xlink" x="0px" y="0px"
	 width="717.6px" height="275.1px" viewBox="0 0 717.6 275.1" style="enable-background:new 0 0 717.6 275.1;" xml:space="preserve"
	>
<style type="text/css">
	.st0{fill:#074C07;}
	.st1{fill:#9E0E0E;}
</style>
<g>
	<g>
		<path class="st0" d="M390.8,178l-17.9-28.3c11.6-0.9,23.3-6.4,23.3-20.4c0-12.8-10.7-20.2-30.8-20.2h-41.8v5
			c3,0.3,10.8,2.5,10.8,8.2v54c0,6.7-5.8,8.1-10.3,8.6v5.4h34.7v-4.9c-5.4-1-10.2-3.4-10.2-9.5v-26.2h8l25.2,40.5h21.8v-5
			C399.9,185,394.8,184.2,390.8,178z M348.6,143.2v-19.8c0-5.9,3-8.2,12.9-8.2c9.9,0,19.7,3.9,19.7,14.1c0,9.4-7.9,14-15.9,14H348.6
			z"/>
	</g>
	<g>
		<path class="st0" d="M461,108.4v5.1c4.2,0.9,10.5,2.7,10.5,9V162c0,13-7.9,20.4-18.8,20.4c-9.2,0-18.2-5.7-18.2-17v-44.4
			c0-5.6,6.4-6.8,9.8-7.8v-4.9H409v4.8c3.4,0.9,10.3,3.1,10.3,9.6v42.6c0,16.5,13,26.4,31.1,26.4c18.2,0,30.1-11.1,30.1-29.1v-40.2
			c0-5.6,5.8-7.8,10.5-9.2v-4.9H461z"/>
	</g>
	<g>
		<path class="st0" d="M549,81.9l-13.1,10.6l-12.3-10.6h-4.2l15.1,20.7h3.4l15-20.7H549z M563,165.4l-3.1,4.6
			c-3.3,5.1-12.1,13.1-26.1,13.1h-19.2l50.8-69.8v-5h-57.1l-8.5,18.5l4.7,2.1l4.5-5.7c3.5-4.5,8-7.9,20-7.9h17.3l-52,69.9v4.5h63
			l9.8-22.4L563,165.4z"/>
	</g>
	<g>
		<path class="st0" d="M614.1,113.5v-5.1h-34.1v4.9c5.3,0.9,9.6,2.5,9.6,8.7v54.5c0,6.6-4.7,7.7-9.6,8.3v4.9h34.1v-4.9
			c-5.4-0.5-10.3-2.3-10.3-8.4V122C603.8,116.1,609.5,114.2,614.1,113.5z"/>
	</g>
	<g>
		<path class="st0" d="M670.6,79.3c-3.2,0-5.6,2.2-6.7,5l-5.5,15.4l2.7,1.7l11-10.8c2.5-2.5,3.1-3.8,3.1-6.6
			C675.3,81.3,673.3,79.3,670.6,79.3z M685.3,164.9c-1.9,8-8.8,21.3-23.8,21.3c-13.2,0-21.6-11.4-21.6-34.2
			c0-29.9,8.1-38.5,20.9-38.5c9.2,0,18.1,7.3,24.3,15.8l4.4-2.3l-8.1-19.6h-4.6l-3.1,3c-1.8-1.2-6.3-3.9-14.6-3.9
			c-22.2,0-35.3,18.8-35.3,44.6c0,28.1,17,41.8,36.6,41.8c20.2,0,29.2-14.4,32-26.3L685.3,164.9z"/>
	</g>
</g>
<g>
	<g>
		<g>
			<g>
				<path class="st0" d="M155.7,101.7c-0.4,0.1-0.8-0.1-1-0.5c-0.1-0.3-3.2-7.4-1.2-12.9c0.2-0.5,0.7-0.7,1.1-0.5
					c0.5,0.2,0.7,0.7,0.5,1.1c-1.8,4.8,1.1,11.5,1.1,11.6c0.2,0.4,0,1-0.4,1.1C155.8,101.7,155.7,101.7,155.7,101.7z"/>
			</g>
		</g>
		<g>
			<g>
				<path class="st1" d="M154,98.1c0,0-2.8,1.6-8.9,1.9c-4.6,0.2-6,10.8,1.1,20s8.6,10.4,13.1,9c4.5-1.4,1.6-2,6.3-2
					c4.7,0,8-2.6,9.7-5.1c1.7-2.5,6-10.8,1.4-22.7s-17.9-6.2-19.4-3.9C156.7,96.2,155.7,97.5,154,98.1z"/>
			</g>
		</g>
		<g>
			<g>
				<path class="st0" d="M149.9,91.6c1.4,1.9,1.8,4.1,1.4,5.9c-0.2-0.2-0.4-0.4-0.6-0.6c-0.4-0.4-0.9-0.8-1.3-1.3
					c-0.4-0.4-0.8-0.9-1.2-1.4c-0.2-0.2-0.4-0.5-0.5-0.7c-0.2-0.3-0.3-0.5-0.4-0.8c0.1,0.3,0.2,0.6,0.3,0.8c0.1,0.3,0.3,0.5,0.5,0.8
					c0.3,0.5,0.7,1,1.1,1.5c0.4,0.5,0.8,0.9,1.2,1.4c0.2,0.3,0.4,0.5,0.7,0.7c-2.1,0-4.3-1.2-5.8-3.2c-1.5-2.1-1.9-4.5-1.2-6.4
					C146.1,88.3,148.4,89.5,149.9,91.6z"/>
			</g>
		</g>
	</g>
	<g>
		<g>
			<g>
				<path class="st0" d="M217.5,101.3c-0.2-0.1-0.3-0.4-0.1-0.6c0.1-0.2,2.1-4.2,5.3-5.4c0.3-0.1,0.6,0,0.7,0.3
					c0.1,0.3,0,0.6-0.3,0.7c-2.8,1-4.7,4.8-4.7,4.9C218.1,101.3,217.8,101.4,217.5,101.3C217.5,101.3,217.5,101.3,217.5,101.3z"/>
			</g>
		</g>
		<g>
			<g>
				<path class="st1" d="M218.5,99.1c0,0-1.8-0.7-4.2-3.3c-1.9-2-7.1,1.4-8.5,8c-1.4,6.6-1.4,7.8,0.9,9.3c2.3,1.5,1.5,0,3.3,2.1
					s4.2,2.6,5.9,2.4c1.8-0.2,7.1-1.4,10.7-7.9c3.6-6.5-4-10.3-5.6-10.1C220.3,99.6,219.4,99.7,218.5,99.1z"/>
			</g>
		</g>
		<g>
			<g>
				<path class="st0" d="M219.9,94.8c-0.3,1.3-1.1,2.4-2.1,2.8c0-0.2,0-0.3,0-0.5c0-0.4,0-0.7,0.1-1.1c0-0.4,0.1-0.7,0.2-1
					c0-0.2,0.1-0.3,0.1-0.5c0.1-0.2,0.1-0.3,0.2-0.5c-0.1,0.1-0.2,0.3-0.3,0.5c-0.1,0.2-0.1,0.3-0.2,0.5c-0.1,0.3-0.2,0.7-0.3,1
					c-0.1,0.4-0.1,0.7-0.2,1.1c0,0.2-0.1,0.4-0.1,0.6c-0.8-1-1.1-2.4-0.8-3.8c0.3-1.5,1.3-2.6,2.4-3
					C219.9,91.9,220.2,93.4,219.9,94.8z"/>
			</g>
		</g>
	</g>
	<g>
		<g>
			<g>
				<path class="st0" d="M251.4,116.5c-0.3,0-0.5-0.2-0.5-0.5c0-0.2-0.9-5.1,1.2-8.2c0.2-0.3,0.5-0.3,0.8-0.2
					c0.3,0.2,0.3,0.5,0.2,0.8c-1.8,2.7-1,7.3-1,7.4c0.1,0.3-0.1,0.6-0.4,0.6C251.5,116.5,251.4,116.5,251.4,116.5z"/>
			</g>
		</g>
		<g>
			<g>
				<path class="st1" d="M250.9,114c0,0-2,0.6-5.8-0.1c-2.9-0.5-5.3,5.9-2.3,12.6s3.8,7.8,6.9,7.6s1.3-1,4.3-0.3s5.4-0.4,6.8-1.8
					s5.3-5.9,4.2-13.9c-1.1-8.1-10.3-6.5-11.5-5.3C252.8,113.3,252.1,113.9,250.9,114z"/>
			</g>
		</g>
		<g>
			<g>
				<path class="st0" d="M249.3,109.3c0.6,1.4,0.5,2.8,0,3.9c-0.1-0.1-0.2-0.3-0.3-0.4c-0.2-0.3-0.4-0.7-0.6-1
					c-0.2-0.3-0.4-0.7-0.5-1c-0.1-0.2-0.2-0.4-0.2-0.5c-0.1-0.2-0.1-0.4-0.1-0.6c0,0.2,0,0.4,0.1,0.6c0,0.2,0.1,0.4,0.2,0.6
					c0.1,0.4,0.3,0.7,0.5,1.1c0.2,0.4,0.4,0.7,0.5,1.1c0.1,0.2,0.2,0.4,0.3,0.6c-1.3-0.3-2.5-1.4-3.2-2.9c-0.6-1.5-0.5-3.1,0.2-4.2
					C247.4,106.8,248.7,107.8,249.3,109.3z"/>
			</g>
		</g>
	</g>
	<g>
		<g>
			<g>
				<path class="st0" d="M217.1,41.2c-0.3,0-0.5-0.3-0.5-0.6c0-0.2-0.3-5.8,2.5-9c0.2-0.3,0.6-0.3,0.9-0.1c0.3,0.2,0.3,0.6,0.1,0.9
					c-2.4,2.8-2.2,8.1-2.2,8.1c0,0.3-0.2,0.6-0.6,0.7C217.2,41.2,217.1,41.2,217.1,41.2z"/>
			</g>
		</g>
		<g>
			<g>
				<path class="st1" d="M216.9,38.2c0,0-2.3,0.4-6.5-1c-3.2-1-6.8,5.8-4.4,13.8c2.5,8,3.2,9.3,6.6,9.5c3.4,0.2,1.6-1,4.8,0.2
					c3.2,1.2,6.1,0.3,7.9-1s6.8-5.8,6.7-15s-10.6-8.7-12.2-7.6C219.2,37.7,218.2,38.3,216.9,38.2z"/>
			</g>
		</g>
		<g>
			<g>
				<path class="st0" d="M215.8,32.8c0.5,1.6,0.2,3.2-0.6,4.4c-0.1-0.2-0.2-0.4-0.3-0.5c-0.2-0.4-0.4-0.8-0.5-1.2
					c-0.2-0.4-0.3-0.8-0.5-1.2c-0.1-0.2-0.1-0.4-0.2-0.6c0-0.2-0.1-0.4-0.1-0.6c0,0.2,0,0.4,0,0.6c0,0.2,0.1,0.4,0.1,0.7
					c0.1,0.4,0.2,0.9,0.4,1.3c0.1,0.4,0.3,0.8,0.5,1.3c0.1,0.2,0.2,0.5,0.3,0.7c-1.4-0.6-2.6-1.9-3.1-3.7c-0.5-1.8-0.2-3.5,0.8-4.7
					C214,29.6,215.3,31,215.8,32.8z"/>
			</g>
		</g>
	</g>
	<g>
		<path class="st0" d="M253.5,91.3c-3.5,3.7-8.6,5.1-13.6,4.3c0.3-0.5,0.6-1,0.9-1.6c0.7-1.1,1.3-2.3,2.1-3.3
			c0.7-1.1,1.5-2.1,2.4-3.1c0.4-0.5,0.9-0.9,1.4-1.4c0.5-0.4,1.1-0.8,1.7-1.1c-0.6,0.2-1.3,0.5-1.8,0.9c-0.6,0.4-1.1,0.8-1.6,1.2
			c-1,0.9-1.9,1.9-2.8,2.9c-0.9,1-1.7,2.1-2.5,3.1c-0.4,0.6-0.9,1.2-1.3,1.8c-1.7-5.1-0.7-10.8,3-14.8c3.8-4.1,9.6-5.4,15-4
			C258.2,81.5,257.3,87.3,253.5,91.3z"/>
	</g>
	<g>
		<path class="st0" d="M182.8,101.1c2.1,4.5,6.4,7.3,11.2,8c-0.1-0.6-0.2-1.1-0.4-1.7c-0.3-1.2-0.6-2.5-0.9-3.7
			c-0.4-1.2-0.8-2.4-1.3-3.6c-0.3-0.6-0.6-1.1-0.9-1.7c-0.3-0.5-0.7-1-1.2-1.5c0.5,0.4,1,0.9,1.4,1.4c0.4,0.5,0.8,1,1.1,1.6
			c0.7,1.1,1.2,2.3,1.7,3.5c0.5,1.2,0.9,2.4,1.4,3.6c0.2,0.7,0.4,1.3,0.7,2c3.1-4.2,3.9-9.7,1.6-14.5c-2.3-4.9-7.2-7.8-12.6-8.1
			C181.3,90.7,180.5,96.2,182.8,101.1z"/>
	</g>
	<g>
		<path class="st0" d="M241.6,157.8c-2.5,3.1-6.2,4.6-9.8,4.3c0.2-0.4,0.4-0.8,0.6-1.2c0.5-0.9,1-1.8,1.5-2.7
			c0.5-0.9,1.1-1.7,1.7-2.5c0.3-0.4,0.6-0.8,1-1.1c0.4-0.4,0.8-0.7,1.2-0.9c-0.5,0.2-0.9,0.5-1.3,0.8c-0.4,0.3-0.8,0.7-1.1,1.1
			c-0.7,0.7-1.4,1.6-2,2.4c-0.6,0.8-1.2,1.7-1.8,2.6c-0.3,0.5-0.6,1-0.9,1.4c-1.3-3.7-0.7-8,2-11.3c2.7-3.4,6.9-4.8,10.8-4.2
			C244.9,150,244.3,154.4,241.6,157.8z"/>
	</g>
	<g>
		<path class="st0" d="M232,129.7c-2.7,2.4-6.6,3-10.1,2c0.2-0.4,0.5-0.7,0.7-1.1c0.5-0.8,1.1-1.5,1.7-2.3c0.6-0.7,1.2-1.4,1.9-2.1
			c0.3-0.3,0.7-0.6,1.1-0.9c0.4-0.3,0.8-0.5,1.3-0.6c-0.5,0.1-0.9,0.3-1.4,0.5c-0.4,0.2-0.8,0.5-1.2,0.8c-0.8,0.6-1.5,1.2-2.2,1.9
			c-0.7,0.7-1.3,1.4-2,2.1c-0.3,0.4-0.7,0.8-1,1.2c-1-3.8,0-7.8,3-10.4c3-2.6,7.3-3.1,11.2-1.7C236,123,235,127.1,232,129.7z"/>
	</g>
	<g>
		<path class="st0" d="M209.1,79.4c1.7,3.2,5.2,5.1,9.1,5.3c-0.1-0.4-0.2-0.8-0.3-1.2c-0.2-0.9-0.5-1.8-0.8-2.7
			c-0.3-0.9-0.6-1.8-1-2.6c-0.2-0.4-0.5-0.8-0.7-1.2c-0.3-0.4-0.6-0.7-1-1c0.4,0.3,0.8,0.6,1.1,0.9c0.3,0.4,0.6,0.7,0.9,1.1
			c0.5,0.8,1,1.6,1.4,2.5c0.4,0.9,0.8,1.7,1.1,2.6c0.2,0.5,0.4,1,0.5,1.5c2.5-3.3,3.1-7.4,1.2-10.9c-1.9-3.5-5.9-5.4-10.2-5.3
			C207.9,71.7,207.2,75.9,209.1,79.4z"/>
	</g>
	<g>
		<path class="st0" d="M268.9,87.1c-0.9,2.8,0,5.9,2,8.3c0.2-0.3,0.4-0.6,0.6-0.9c0.4-0.6,0.8-1.3,1.1-2c0.4-0.7,0.7-1.4,0.9-2.1
			c0.1-0.4,0.2-0.7,0.3-1.1c0.1-0.4,0.1-0.8,0-1.2c0.1,0.4,0.1,0.8,0.1,1.2c0,0.4-0.1,0.8-0.2,1.2c-0.2,0.8-0.4,1.5-0.7,2.2
			c-0.3,0.7-0.6,1.4-0.9,2.1c-0.2,0.4-0.4,0.8-0.5,1.1c3.3-0.4,6.1-2.4,7-5.4c1-3.1-0.2-6.5-2.6-9C272.7,82,269.9,84,268.9,87.1z"/>
	</g>
	<g>
		<path class="st0" d="M256.2,57.3c-2.2,2.9-6,4.3-10,4c0.2-0.4,0.3-0.8,0.5-1.2c0.4-0.9,0.7-1.8,1.2-2.6c0.4-0.8,0.9-1.7,1.4-2.4
			c0.3-0.4,0.6-0.8,0.9-1.1c0.3-0.3,0.7-0.6,1.2-0.9c-0.5,0.2-0.9,0.5-1.3,0.8c-0.4,0.3-0.7,0.6-1.1,1c-0.7,0.7-1.2,1.5-1.8,2.3
			c-0.5,0.8-1,1.6-1.5,2.5c-0.3,0.5-0.5,0.9-0.8,1.4c-2-3.7-2-7.9,0.4-11.1c2.4-3.2,6.7-4.5,11.1-3.8
			C258.6,49.8,258.7,54.1,256.2,57.3z"/>
	</g>
	<g>
		<path class="st0" d="M169.7,69.9c1.5,3.7,0.8,7.9-1.6,11.3c-0.3-0.4-0.6-0.7-0.9-1.1c-0.6-0.8-1.2-1.6-1.8-2.5
			c-0.6-0.9-1.1-1.7-1.5-2.7c-0.2-0.5-0.4-0.9-0.5-1.4c-0.1-0.5-0.2-1-0.2-1.6c-0.1,0.5-0.1,1.1,0,1.6c0.1,0.5,0.2,1,0.4,1.5
			c0.3,1,0.7,2,1.2,2.9c0.5,0.9,1,1.8,1.5,2.7c0.3,0.5,0.6,1,0.9,1.5c-4.5-0.2-8.4-2.5-10-6.5c-1.7-4-0.6-8.7,2.4-12.3
			C164,63.5,168,65.8,169.7,69.9z"/>
	</g>
	<g>
		<path class="st0" d="M193.2,54.9c1.3,4.5,0,9.1-3,12.6c-0.3-0.5-0.5-1-0.8-1.4c-0.6-1.1-1.1-2.1-1.6-3.2c-0.5-1.1-1-2.2-1.3-3.3
			c-0.2-0.6-0.3-1.2-0.4-1.7c-0.1-0.6-0.1-1.2,0-1.8c-0.1,0.6-0.2,1.2-0.2,1.8c0,0.6,0.1,1.2,0.2,1.8c0.2,1.2,0.6,2.4,1,3.5
			c0.4,1.2,0.8,2.3,1.3,3.4c0.3,0.6,0.5,1.2,0.8,1.8c-4.8-1.1-8.7-4.5-10.1-9.3c-1.4-4.9,0.3-10,3.9-13.6
			C187.8,46.5,191.8,50,193.2,54.9z"/>
	</g>
	<g>
		<path class="st0" d="M272.4,117.7c-2.3,3.9-2.6,8.3-1.2,11.9c0.4-0.4,0.7-0.8,1.1-1.2c0.8-0.9,1.5-1.8,2.3-2.7
			c0.7-0.9,1.4-1.9,2-2.9c0.3-0.5,0.6-1,0.8-1.5c0.2-0.5,0.4-1.1,0.6-1.6c-0.1,0.6-0.2,1.1-0.4,1.7c-0.2,0.6-0.4,1.1-0.7,1.6
			c-0.5,1.1-1.1,2.1-1.8,3.1c-0.6,1-1.3,2-2,2.9c-0.4,0.5-0.8,1-1.2,1.6c4.2-0.4,8.4-3,10.9-7.2c2.5-4.3,2.7-9.2,0.8-12.9
			C279.2,110.8,275,113.4,272.4,117.7z"/>
	</g>
	<g>
		<path class="st0" d="M171.5,151.6c3.8,5.4,10.2,8.2,16.7,8.1c-0.3-0.7-0.6-1.5-0.9-2.2c-0.6-1.6-1.3-3.2-2.1-4.7
			c-0.7-1.5-1.6-3-2.5-4.5c-0.5-0.7-1-1.4-1.6-2c-0.6-0.6-1.2-1.2-2-1.7c0.8,0.4,1.5,0.9,2.2,1.5c0.7,0.6,1.3,1.2,1.8,1.9
			c1.1,1.3,2.1,2.8,3.1,4.2c0.9,1.5,1.8,3,2.6,4.5c0.5,0.8,0.9,1.7,1.3,2.5c3.1-6.3,2.9-13.7-1.2-19.6c-4.2-5.9-11.4-8.7-18.6-7.9
			C167.1,138.1,167.3,145.7,171.5,151.6z"/>
	</g>
	<path class="st0" d="M366.3,247.5c-0.2-0.1-0.5-0.2-0.8-0.3c-5.3-1.5-8.4-6.2-11.6-10.2c-1.9-2.4-4-4.7-5.9-7.1
		c-2.1-2.6-4.2-5.3-6.7-7.5c-5.4-4.7-12.2-7-18.9-9.4c-6.1-2.2-11.6-5-16.7-8.9c-5.1-3.9-9.8-8.3-15.1-12
		c-5.6-3.9-11.9-6.8-18.7-7.9c-7.3-1.2-14.6-0.9-21.8,0.6c-6.4,1.3-12.9,3.5-18.5,7c-1.8,0.8-3.4,1.1-4.7,1.1
		c-4.9,0-6.4-4.8-6.4-4.8c-0.9-4-1.1-8.8-1.1-12.5c0-23.9,16.9-38,16.9-38c-15.9-1.2-22,11-22,11c-2.4-20.8-25.6-20.8-25.6-20.8
		c19,23.7,17.5,49.7,13.3,66.7c-2.2,8.1-11.9,7.9-14.7,7.7c-4.7-1.3-9.7-1.5-14.6-1.2c-4,0.3-8.1,0.6-11.9,1.8
		c-3.6,1.2-6.9,2.9-10.4,4.2c-1.6,0.6-3.3,1.1-5,1.3c-1.4,0.2-3.4-0.1-5-0.2c-3.5-0.2-6.9,0-10.3,0.5c-10.9,1.5-20.6,7.2-27.9,15.3
		c-3.6,3.9-6.7,8.2-9.5,12.7c-2.2,3.4-4.3,7-6.8,10.2c-0.1,0.1-0.1,0.2-0.2,0.3c-22.9,0.9-45.9,2-68.8,3.7
		c34.4,2.5,68.7,3.8,103.1,4.8c34.4,0.9,68.7,1.3,103.1,1.3c34.4,0,68.7-0.4,103.1-1.3c34.4-0.9,68.7-2.3,103.1-4.8
		C408.2,249.4,387.2,248.3,366.3,247.5z M223,244.8c-34.4,0-68.7,0.4-103.1,1.3c-8.4,0.2-16.8,0.5-25.2,0.8c1.1-1.6,2.1-3.3,3.2-5
		c1.1-1.7,2.2-3.4,3.3-5.1c0.6-0.8,1.2-1.7,1.8-2.5c0.3-0.4,0.6-0.8,0.9-1.2c0.1-0.1,0.1-0.1,0.1-0.2c0.2-0.3,0.4-0.5,0.7-0.8
		c1.4-1.8,2.9-3.4,4.5-5c0.8-0.8,1.7-1.6,2.6-2.4c0.4-0.4,0.8-0.7,1.2-1c0,0,0.4-0.3,0.5-0.4c0.2-0.1,0.4-0.3,0.6-0.4
		c2.1-1.5,4.3-2.8,6.6-3.9c0.2-0.1,0.4-0.2,0.6-0.3c0,0,0.4-0.2,0.6-0.3c0.5-0.2,1-0.4,1.5-0.6c1.4-0.5,2.8-0.9,4.2-1.3
		c3-0.7,5-1,8-1.1c3.3-0.1,6.6,0.5,9.9,0.2c7.4-0.7,13.6-5.4,20.8-6.6c3.5-0.6,7.4-0.8,11.1-0.8c3.5,0,7.1,0.4,10.4,1.8
		c6.3,2.6,10,8.7,14.8,13.3c6.5,6.2,15,8.9,23.2,12c5.2,2,11.6,4.9,15,9.4C234.9,244.9,229,244.8,223,244.8z M326.1,246.1
		c-25.7-0.7-51.4-1.1-77-1.2c-5.7-12.8-20.7-14.2-32-20.7c-0.8-0.4-11.6-10.3,16.1-25.3c1.9-1,3.5-1.8,4.7-2.3
		c1.2-0.6,1.9-0.9,1.9-0.9c2.9-1.3,5.9-2.3,8.9-3.1c6.4-1.7,13.1-2.4,19.7-1.6c6.4,0.8,12.2,3.2,17.5,6.8c5,3.4,9.5,7.5,14.2,11.2
		c5.4,4.2,11,7.6,17.5,10.1c5.8,2.2,12.1,3.8,17.3,7.5c2.9,2.1,5.1,4.9,7.3,7.7c2.1,2.7,4.4,5.2,6.5,7.9c1.1,1.4,2.4,3.2,3.8,4.8
		C343.7,246.7,334.9,246.4,326.1,246.1z"/>
</g>
</svg>
