<?xml version="1.0" encoding="utf-8"?>
<!-- Generator: Adobe Illustrator 24.0.2, SVG Export Plug-In . SVG Version: 6.00 Build 0)  -->
<svg version="1.1" xmlns="http://www.w3.org/2000/svg" xmlns:xlink="http://www.w3.org/1999/xlink" x="0px" y="0px"
	 viewBox="0 0 64 64" style="enable-background:new 0 0 64 64;" xml:space="preserve">
<style type="text/css">
	.st0{fill:#A68D6F;}
	.st1{display:none;}
	.st2{display:inline;fill:#486C19;}
</style>
<g id="Layer_2">
	<g>
		<path class="st0" d="M22,25.7c1,0,1.8-0.8,1.8-1.8S23,22.2,22,22.2s-1.8,0.8-1.8,1.8S21,25.7,22,25.7z M22,23.7
			c0.1,0,0.2,0.1,0.2,0.2c0,0.3-0.5,0.3-0.5,0C21.7,23.8,21.9,23.7,22,23.7z"/>
		<path class="st0" d="M32,25.7c1,0,1.8-0.8,1.8-1.8S33,22.2,32,22.2s-1.8,0.8-1.8,1.8S31,25.7,32,25.7z M32,23.7
			c0.1,0,0.2,0.1,0.2,0.2c0,0.3-0.5,0.3-0.5,0C31.7,23.8,31.9,23.7,32,23.7z"/>
		<path class="st0" d="M27,32.7c2.1,0,3.8-1.7,3.8-3.8h-1.5c0,1.2-1,2.2-2.2,2.2s-2.2-1-2.2-2.2h-1.5C23.2,31,24.9,32.7,27,32.7z"/>
		<path class="st0" d="M8.1,50.9c0,0.1,0,0.2,0.1,0.3L7,61.8l2,0.2l0.8-7.5c1.1,1.2,2.6,2,4.2,2.3v5.1h2v-5h1c2,0,3.7-0.8,5-2.1v7.1
			h2v-11h6v11h2V50.5l3.6,1.6c0.4,0.2,1,0,1.2-0.4c1.6-2.4,2.6-6.6,3-8.5l2.8,0.5l1.6,14.7c0.2,2,1.9,3.6,4,3.6h0.6
			c2,0,3.8-1.5,4-3.6L55,37.5c0.2-1.4-0.3-2.8-1.3-3.9c-0.8-0.8-1.8-1.4-2.9-1.6l2.8-4.2c2.9-1,8.8-3.2,8.3-6
			c-0.1-0.7-0.6-1.1-1.5-1.4c-2.1-0.7-4.4,0.2-5.7,2.1l-4.3,6.5c0.3-2.5,0.8-5.5,1.2-8.4l0.1,0c1.2-1.5,7.3-9.4,6.2-12.9
			c-0.3-0.8-0.9-1.3-1.6-1.3c-1.4-0.1-2.8,1.3-4.3,4.2c-0.8,1.7-1.7,5.6-2.4,9.7c-0.7-2.4-2.8-4.1-5.4-4.3l-3.5-2.8L37.5,5
			c-0.4-1.8-2-3.1-3.9-3.1H20.4c-1.8,0-3.5,1.3-3.9,3.1l-3.4,8.1L9.6,16c-3.1,0.2-5.6,2.8-5.6,6c0,3.6,5.6,4.6,8.4,4.8l1.3,4.2H10
			c-2.2,0-4,1.8-4,4c0,0.9,0.3,1.7,0.8,2.4C4,38.2,2,40.9,2,43.9C2,47.5,4.6,50.4,8.1,50.9z M56.5,23.5c0.6-0.9,1.6-1.4,2.6-1.4
			c0.3,0,0.6,0,0.8,0.1c0,0,0.1,0,0.1,0c-0.4,0.6-2.1,1.7-4.4,2.7L56.5,23.5z M53.9,11.4c1.1-2.2,1.9-2.8,2.2-3
			c0.3,1.4-1.5,4.8-3.6,7.8C53,14,53.4,12.3,53.9,11.4z M30.1,48.5C30,48.6,30,48.8,30,48.9h-6h-0.1c-0.2-1.6-1-3-2.1-4.1l0.1,0
			L20,40.7v-0.8h3c0.6,0,1-0.4,1-1v-2.4c1,0.2,2,0.4,3,0.4s2-0.1,3-0.4v2.4c0,0.6,0.4,1,1,1h3v0.8L30.1,48.5z M16.2,42.9
			c0-0.2-0.1-0.4-0.1-0.5L18,41c0,0.1,0,0.3,0.1,0.4l0.8,1.9c-0.6-0.2-1.3-0.3-1.9-0.3H16.2z M17,19.6l1.8,0.4
			c5.4,1.3,11.1,1.3,16.4,0l1.8-0.4v5.3c0,5.5-4.5,10-10,10s-10-4.5-10-10V19.6z M40.5,18.8c0.2,2.3-0.4,4.6-1.5,6.5
			c0-0.1,0-0.3,0-0.4v-5.8L40.5,18.8z M35.6,49.9l-3.2-1.4l3.5-7.1C36,41.3,36,41.1,36,41l1.9,1.5C37.6,43.9,36.8,47.5,35.6,49.9z
			 M53,37.3l-2.2,20.9c-0.1,1-1,1.8-2,1.8h-0.6c-1,0-1.9-0.8-2-1.8l-1-9.2H49v-2h-4v0.4l-1.1-10.1c-0.1-0.9,0.2-1.7,0.8-2.3
			c0.6-0.6,1.4-1,2.2-1H50c0.9,0,1.7,0.4,2.2,1S53.1,36.4,53,37.3z M49.2,24c-0.5,3.4-0.9,6.5-1.1,8h-1.2c-1.4,0-2.8,0.6-3.7,1.7
			c-0.9,1.1-1.4,2.5-1.3,3.9l0.4,4.2l-3-0.5l-3.8-2.9C35.4,38,35.2,38,35,38v0h-3v-2.1c2.7-1.3,4.9-3.5,6.1-6.3
			c0.9-0.8,1.7-1.7,2.3-2.8C42.5,26.7,47.2,26.1,49.2,24z M48,21.9c0,1.3-3.5,2.4-6.5,2.7c0.8-2,1.1-4.1,0.9-6.2l0-0.1l1.6-0.4
			C46.3,18,48,19.8,48,21.9z M38.8,13.4l-7.3,1c-3,0.4-6,0.4-8.9,0l-7.3-1l0.8-1.9l6.2,0.8c1.6,0.2,3.2,0.3,4.7,0.3s3.2-0.1,4.7-0.3
			l6.2-0.8L38.8,13.4z M18.4,5.7c0-0.1,0-0.1,0.1-0.2c0.2-0.9,1-1.6,2-1.6h13.1c0.9,0,1.8,0.7,2,1.6c0,0.1,0,0.1,0.1,0.2l1.6,3.9
			l-5.7,0.8c-3,0.4-6,0.4-8.9,0l-5.7-0.8L18.4,5.7z M13.8,15.2l8.5,1.1c1.6,0.2,3.2,0.3,4.7,0.3s3.2-0.1,4.7-0.3l8.5-1.1l1.6,1.2
			l-7,1.6c-5.1,1.2-10.4,1.2-15.5,0l-7-1.7L13.8,15.2z M6,21.9c0-2.2,1.7-3.9,3.9-4l0.7,0.2c0,1.8,0.2,3.6,0.7,5.4l0.4,1.2
			C9.1,24.4,6,23.4,6,21.9z M9,38.9h1h1h4v-2h-4h-1c-1.1,0-2-0.9-2-2c0-1.1,0.9-2,2-2h5c0.3,0,0.6-0.2,0.8-0.4
			C16,32.3,16,32,16,31.7l-2.7-8.8c-0.4-1.4-0.6-2.8-0.7-4.3l2.4,0.6v5.8c0,4.8,2.9,9,7,10.9v2.1h-3v0c-0.2,0-0.4,0.1-0.6,0.2
			l-4,3.1c-0.3,0.2-0.4,0.6-0.4,1c0,0,0,0.3,0.1,0.7H14v2h3c2.8,0,5,2.2,5,5c0,2.8-2.2,5-5,5h-2c-2.4,0-4.3-1.6-4.9-3.8l0-0.2H15v-2
			H9c-2.8,0-5-2.2-5-5C4,41.2,6.2,38.9,9,38.9z"/>
		<rect x="38" y="55.9" class="st0" width="2" height="6"/>
		<rect x="45" y="36.9" class="st0" width="3" height="2"/>
		<rect x="48" y="40.9" class="st0" width="4" height="2"/>
		<rect x="48" y="50.9" class="st0" width="2" height="2"/>
	</g>
</g>
<g id="Layer_1">
	<g class="st1">
		<path class="st2" d="M29.8,20.5c-0.1,0-0.2,0-0.3-0.1c-1.2-0.6-2.5-0.6-3.7,0c-0.3,0.2-0.8,0-0.9-0.3c-0.2-0.3,0-0.8,0.3-0.9
			c1.6-0.8,3.3-0.8,4.9,0c0.3,0.2,0.5,0.6,0.3,0.9C30.3,20.3,30.1,20.5,29.8,20.5z"/>
		<path class="st2" d="M38,20.5c-0.1,0-0.2,0-0.3-0.1c-1.2-0.6-2.5-0.6-3.7,0c-0.3,0.2-0.8,0-0.9-0.3c-0.2-0.3,0-0.8,0.3-0.9
			c1.6-0.8,3.3-0.8,4.9,0c0.3,0.2,0.5,0.6,0.3,0.9C38.5,20.3,38.3,20.5,38,20.5z"/>
		<path class="st2" d="M31.9,30.1c-1.1,0-2.2-0.5-3.3-1.6c-0.3-0.3-0.3-0.7,0-1s0.7-0.3,1,0c1.6,1.6,3.1,1.6,4.7,0
			c0.3-0.3,0.7-0.3,1,0s0.3,0.7,0,1C34.2,29.6,33,30.1,31.9,30.1z"/>
		<path class="st2" d="M59,61.6H47.5v-1.1l2.6-3.5c0.6-0.9,1-1.9,1-3V43.8c0-3-2.1-5.6-5.1-6.1l-0.7-0.1V26.8c1-0.1,1.8-0.9,1.8-2
			v-5.5c0-1-0.8-1.9-1.8-2v-2.9C45.3,7,39.3,1,31.9,1S18.5,7,18.5,14.4v2.9c-1,0.1-1.8,0.9-1.8,2v5.5c0,1,0.8,1.9,1.8,2v10.8
			l-0.7,0.1c-3,0.5-5.1,3.1-5.1,6.1V54c0,1.1,0.4,2.2,1,3l2.7,3.5v1H5c-0.4,0-0.7,0.3-0.7,0.7S4.6,63,5,63h11.6h30.9H59
			c0.4,0,0.7-0.3,0.7-0.7S59.4,61.6,59,61.6z M49,56.2l-1.5,2V48.1l2.2-2v8C49.7,54.8,49.4,55.6,49,56.2z M49.7,43.8v0.4l-2.3,2.1
			c-0.3-1.7-1.7-2.9-3.5-2.9h-5c0.9-1.6,1.7-3.3,2.4-5.1l4.4,0.8C48,39.5,49.7,41.5,49.7,43.8z M26.6,43.4c-1.1-1.6-1.9-3.4-2.7-5.4
			c1.7-0.6,3-2.3,3.1-4.1c0.9,0.6,1.9,1.1,2.9,1.5c0.7,0.2,1.4,0.4,2.1,0.4s1.4-0.1,2.1-0.4c1-0.4,2-0.9,2.9-1.5
			c0.1,1.9,1.3,3.5,3.1,4.1c-0.7,2-1.6,3.8-2.7,5.4H26.6z M21.8,17.3c6.8-1,11.1-2.5,13.8-4.8c1.9,2.2,3.7,3.6,6.5,5.1l-0.5,5.9
			c-0.1,1.4-0.5,2.8-1.1,4c-0.3,0.7-0.7,1.3-1.1,1.9c-0.2,0.2-0.4,0.5-0.5,0.7c-0.1,0-0.2,0-0.3,0h-4c-0.4,0-0.7,0.3-0.7,0.7
			s0.3,0.7,0.7,0.7h3c-1.2,1.1-2.5,1.9-4,2.4c-1,0.4-2.2,0.4-3.2,0c-4.5-1.6-7.6-5.7-8-10.5L21.8,17.3z M42.3,26.8h0.3
			c-0.2,1-0.7,1.9-1.5,2.5c0.2-0.4,0.4-0.8,0.6-1.2C42,27.7,42.1,27.2,42.3,26.8z M41,36.8c-1.6-0.3-2.8-1.7-2.8-3.3v-0.7
			c0.2-0.2,0.5-0.4,0.7-0.6c0.2-0.2,0.4-0.4,0.6-0.7c2.2-0.4,3.9-2.1,4.4-4.2v10.1L41,36.8z M45.8,19.3v5.5c0,0.3-0.3,0.6-0.6,0.6
			h-2.5c0.1-0.6,0.2-1.2,0.3-1.8l0.4-4.9h1.8C45.5,18.7,45.8,18.9,45.8,19.3z M31.9,2.4c6.6,0,12,5.4,12,12v2.9h-0.5v-0.1
			c0-0.3-0.1-0.5-0.4-0.7c-3.1-1.7-4.9-3.1-7-5.5c-0.1-0.1-0.3-0.2-0.5-0.2S35.1,10.9,35,11c-2.4,2.5-6.7,4-14,5
			c-0.4,0-0.6,0.4-0.6,0.7v0.5h-0.5v-2.9C19.9,7.8,25.3,2.4,31.9,2.4z M18.1,24.8v-5.5c0-0.3,0.3-0.6,0.6-0.6h1.8l0.4,4.9
			c0.1,0.6,0.1,1.2,0.3,1.8h-2.5C18.4,25.4,18.1,25.1,18.1,24.8z M19.9,26.8h1.7c0.8,2.3,2.2,4.4,4,6v0.7c0,1.6-1.2,3-2.8,3.3
			l-2.9,0.5C19.9,37.3,19.9,26.8,19.9,26.8z M18.1,39.1l4.4-0.8c0.7,1.8,1.5,3.5,2.4,5.1H20c-1.8,0-3.2,1.3-3.5,3l-2.4-2.2v-0.4
			C14.2,41.5,15.8,39.5,18.1,39.1z M14.9,56.2c-0.5-0.6-0.7-1.4-0.7-2.2v-7.9l2.4,2.1v10.1L14.9,56.2z M17.9,61.6V46.9
			c0-1.2,1-2.2,2.2-2.2H44c1.2,0,2.2,1,2.2,2.2v14.7C46.2,61.6,17.9,61.6,17.9,61.6z"/>
		<path class="st2" d="M32.3,55.6c-1.7,0-3.2-1.4-3.2-3.2c0-1.7,1.4-3.2,3.2-3.2c1.7,0,3.2,1.4,3.2,3.2C35.5,54.1,34,55.6,32.3,55.6
			z M32.3,50.6c-1,0-1.8,0.8-1.8,1.8s0.8,1.8,1.8,1.8s1.8-0.8,1.8-1.8C34.1,51.4,33.3,50.6,32.3,50.6z"/>
	</g>
</g>
</svg>
