<?xml version="1.0" encoding="utf-8"?>
<!-- Generator: Adobe Illustrator 24.0.2, SVG Export Plug-In . SVG Version: 6.00 Build 0)  -->
<svg version="1.1" id="Layer_2_1_" xmlns="http://www.w3.org/2000/svg" xmlns:xlink="http://www.w3.org/1999/xlink" x="0px" y="0px"
	 width="365.7px" height="313.9px" viewBox="0 0 365.7 313.9" style="enable-background:new 0 0 365.7 313.9;" xml:space="preserve"
	>
<style type="text/css">
	.st0{fill:#5BA616;}
	.st1{fill:#E12C43;}
</style>
<g>
	<g>
		<g>
			<path class="st0" d="M129.2,69.2c-0.3,0.1-0.6-0.1-0.8-0.4c-0.1-0.2-2.5-5.8-0.9-10.1c0.1-0.4,0.5-0.5,0.9-0.4
				c0.4,0.1,0.5,0.5,0.4,0.9c-1.4,3.8,0.9,9,0.9,9.1C129.9,68.6,129.7,69.1,129.2,69.2C129.3,69.1,129.2,69.1,129.2,69.2z"/>
		</g>
	</g>
	<g>
		<g>
			<path class="st1" d="M127.8,66.3c0,0-2.2,1.2-7,1.5c-3.6,0.2-4.7,8.5,0.8,15.7c5.6,7.2,6.8,8.2,10.3,7.1c3.6-1.1,1.3-1.6,5-1.6
				s6.3-2,7.6-4s4.7-8.5,1.1-17.8c-3.6-9.3-14.1-4.9-15.2-3.1C130,64.8,129.2,65.9,127.8,66.3z"/>
		</g>
	</g>
	<g>
		<g>
			<path class="st0" d="M124.6,61.1c1.1,1.5,1.4,3.2,1.1,4.6c-0.2-0.1-0.3-0.3-0.5-0.4c-0.3-0.3-0.7-0.7-1-1
				c-0.3-0.3-0.6-0.7-0.9-1.1c-0.1-0.2-0.3-0.4-0.4-0.6c-0.1-0.2-0.2-0.4-0.3-0.6c0.1,0.2,0.1,0.4,0.2,0.7c0.1,0.2,0.2,0.4,0.4,0.6
				c0.3,0.4,0.6,0.8,0.9,1.2s0.6,0.7,0.9,1.1c0.2,0.2,0.4,0.4,0.5,0.6c-1.6,0-3.4-0.9-4.6-2.5s-1.5-3.5-1-5
				C121.6,58.6,123.4,59.5,124.6,61.1z"/>
		</g>
	</g>
</g>
<g>
	<g>
		<g>
			<path class="st0" d="M177.8,68.8c-0.1-0.1-0.2-0.3-0.1-0.5c0.1-0.1,1.7-3.3,4.2-4.2c0.2-0.1,0.4,0,0.5,0.2s0,0.4-0.2,0.5
				c-2.2,0.8-3.7,3.8-3.7,3.8C178.4,68.8,178.1,68.9,177.8,68.8C177.9,68.8,177.9,68.8,177.8,68.8z"/>
		</g>
	</g>
	<g>
		<g>
			<path class="st1" d="M178.6,67.1c0,0-1.4-0.5-3.3-2.6c-1.5-1.6-5.6,1.1-6.7,6.3c-1.1,5.2-1.1,6.1,0.7,7.3s1.2,0,2.6,1.6
				s3.3,2,4.7,1.9s5.6-1.1,8.4-6.2c2.8-5.1-3.1-8.1-4.4-8C180.1,67.5,179.3,67.6,178.6,67.1z"/>
		</g>
	</g>
	<g>
		<g>
			<path class="st0" d="M179.7,63.7c-0.2,1-0.9,1.9-1.7,2.2c0-0.1,0-0.3,0-0.4c0-0.3,0-0.6,0.1-0.8c0-0.3,0.1-0.6,0.1-0.8
				c0-0.1,0.1-0.3,0.1-0.4c0-0.1,0.1-0.3,0.2-0.4c-0.1,0.1-0.1,0.2-0.2,0.4c-0.1,0.1-0.1,0.3-0.1,0.4c-0.1,0.3-0.1,0.5-0.2,0.8
				c-0.1,0.3-0.1,0.6-0.1,0.8c0,0.2,0,0.3-0.1,0.5c-0.6-0.8-0.9-1.9-0.6-3c0.3-1.1,1-2,1.9-2.3C179.7,61.4,180,62.6,179.7,63.7z"/>
		</g>
	</g>
</g>
<g>
	<g>
		<g>
			<path class="st0" d="M204.6,80.8c-0.2,0-0.4-0.2-0.4-0.4c0-0.2-0.7-4,0.9-6.5c0.1-0.2,0.4-0.3,0.6-0.1c0.2,0.1,0.3,0.4,0.1,0.6
				c-1.4,2.2-0.8,5.8-0.8,5.8C205.1,80.5,204.9,80.8,204.6,80.8L204.6,80.8z"/>
		</g>
	</g>
	<g>
		<g>
			<path class="st1" d="M204.2,78.8c0,0-1.6,0.5-4.6-0.1c-2.3-0.4-4.2,4.6-1.8,9.9s3,6.1,5.4,6s1-0.8,3.3-0.3s4.2-0.3,5.4-1.4
				c1.1-1,4.2-4.6,3.3-11s-8.1-5.1-9.1-4.2C205.7,78.2,205.1,78.8,204.2,78.8z"/>
		</g>
	</g>
	<g>
		<g>
			<path class="st0" d="M202.9,75.1c0.5,1.1,0.4,2.2,0,3.1c-0.1-0.1-0.2-0.2-0.2-0.3c-0.2-0.3-0.3-0.5-0.5-0.8s-0.3-0.5-0.4-0.8
				c-0.1-0.1-0.1-0.3-0.2-0.4c0-0.1-0.1-0.3-0.1-0.4c0,0.1,0,0.3,0.1,0.4c0,0.1,0.1,0.3,0.1,0.4c0.1,0.3,0.2,0.6,0.4,0.9
				c0.1,0.3,0.3,0.6,0.4,0.8c0.1,0.1,0.2,0.3,0.2,0.4c-1-0.3-2-1.1-2.5-2.3c-0.5-1.2-0.4-2.4,0.1-3.3
				C201.4,73.1,202.4,74,202.9,75.1z"/>
		</g>
	</g>
</g>
<g>
	<g>
		<g>
			<path class="st0" d="M177.6,21.4c-0.2,0-0.4-0.2-0.4-0.5c0-0.2-0.2-4.6,1.9-7.1c0.2-0.2,0.5-0.2,0.7-0.1c0.2,0.2,0.2,0.5,0.1,0.7
				c-1.9,2.2-1.7,6.4-1.7,6.4c0,0.3-0.2,0.5-0.5,0.5C177.6,21.5,177.6,21.5,177.6,21.4z"/>
		</g>
	</g>
	<g>
		<g>
			<path class="st1" d="M177.4,19.1c0,0-1.8,0.3-5.1-0.8c-2.5-0.8-5.4,4.6-3.4,10.9s2.5,7.3,5.2,7.5s1.3-0.8,3.8,0.2
				c2.5,0.9,4.8,0.2,6.2-0.8s5.4-4.6,5.3-11.8s-8.3-6.9-9.6-6C179.2,18.7,178.4,19.2,177.4,19.1z"/>
		</g>
	</g>
	<g>
		<g>
			<path class="st0" d="M176.5,14.8c0.4,1.3,0.2,2.5-0.4,3.4c-0.1-0.1-0.1-0.3-0.2-0.4c-0.2-0.3-0.3-0.6-0.4-0.9
				c-0.1-0.3-0.3-0.6-0.4-1c0-0.2-0.1-0.3-0.1-0.5s0-0.3,0-0.5c0,0.2,0,0.3,0,0.5s0,0.3,0.1,0.5c0.1,0.3,0.2,0.7,0.3,1
				s0.2,0.7,0.4,1c0.1,0.2,0.1,0.4,0.2,0.5c-1.1-0.4-2.1-1.5-2.5-2.9s-0.1-2.8,0.6-3.7C175.1,12.4,176.1,13.4,176.5,14.8z"/>
		</g>
	</g>
</g>
<g>
	<path class="st0" d="M206.2,61c-2.8,2.9-6.8,4-10.7,3.4c0.2-0.4,0.5-0.8,0.7-1.2c0.5-0.9,1.1-1.8,1.6-2.6c0.6-0.9,1.2-1.7,1.9-2.5
		c0.3-0.4,0.7-0.7,1.1-1.1c0.4-0.3,0.8-0.6,1.3-0.8c-0.5,0.2-1,0.4-1.4,0.7s-0.9,0.6-1.3,1c-0.8,0.7-1.5,1.5-2.2,2.3s-1.3,1.6-2,2.5
		c-0.3,0.5-0.7,0.9-1,1.4c-1.3-4-0.6-8.5,2.4-11.6c3-3.2,7.6-4.2,11.8-3.2C210,53.2,209.2,57.8,206.2,61z"/>
</g>
<g>
	<path class="st0" d="M150.5,68.7c1.7,3.5,5,5.7,8.8,6.3c-0.1-0.4-0.2-0.9-0.3-1.3c-0.2-1-0.4-2-0.7-2.9c-0.3-1-0.6-1.9-1-2.8
		c-0.2-0.5-0.4-0.9-0.7-1.3s-0.6-0.8-1-1.2c0.4,0.3,0.8,0.7,1.1,1.1s0.6,0.8,0.9,1.3c0.5,0.9,1,1.8,1.3,2.7c0.4,0.9,0.7,1.9,1.1,2.9
		c0.2,0.5,0.4,1.1,0.5,1.6c2.4-3.3,3.1-7.6,1.2-11.4c-1.8-3.8-5.7-6.2-9.9-6.4C149.4,60.4,148.7,64.8,150.5,68.7z"/>
</g>
<g>
	<path class="st0" d="M196.9,113.3c-2,2.4-4.9,3.6-7.7,3.4c0.2-0.3,0.3-0.7,0.5-1c0.4-0.7,0.7-1.4,1.2-2.1c0.4-0.7,0.8-1.4,1.3-2
		c0.2-0.3,0.5-0.6,0.8-0.9s0.6-0.5,0.9-0.7c-0.4,0.2-0.7,0.4-1,0.6c-0.3,0.3-0.6,0.5-0.9,0.8c-0.6,0.6-1.1,1.2-1.6,1.9
		c-0.5,0.7-0.9,1.3-1.4,2c-0.2,0.4-0.5,0.7-0.7,1.1c-1-2.9-0.5-6.3,1.6-8.9c2.2-2.6,5.4-3.8,8.5-3.3
		C199.5,107.2,199,110.7,196.9,113.3z"/>
</g>
<g>
	<path class="st0" d="M189.3,91.2c-2.2,1.9-5.2,2.4-8,1.6c0.2-0.3,0.4-0.6,0.6-0.8c0.4-0.6,0.9-1.2,1.3-1.8c0.5-0.6,1-1.1,1.5-1.6
		c0.3-0.2,0.6-0.5,0.9-0.7c0.3-0.2,0.6-0.4,1-0.5c-0.4,0.1-0.7,0.2-1.1,0.4c-0.3,0.2-0.7,0.4-1,0.6c-0.6,0.4-1.2,0.9-1.7,1.5
		c-0.5,0.5-1.1,1.1-1.6,1.6c-0.3,0.3-0.5,0.6-0.8,0.9c-0.8-3,0-6.2,2.3-8.2c2.4-2.1,5.7-2.5,8.8-1.3
		C192.4,85.9,191.7,89.1,189.3,91.2z"/>
</g>
<g>
	<path class="st0" d="M171.3,51.5c1.4,2.5,4.1,4,7.2,4.2c-0.1-0.3-0.2-0.7-0.2-1c-0.2-0.7-0.4-1.4-0.6-2.1c-0.2-0.7-0.5-1.4-0.8-2
		c-0.2-0.3-0.4-0.6-0.6-0.9c-0.2-0.3-0.5-0.6-0.8-0.8c0.3,0.2,0.6,0.5,0.9,0.7c0.3,0.3,0.5,0.6,0.7,0.9c0.4,0.6,0.8,1.3,1.1,2
		s0.6,1.4,0.9,2.1c0.1,0.4,0.3,0.8,0.4,1.1c2-2.6,2.5-5.9,1-8.6c-1.5-2.8-4.6-4.3-8.1-4.2C170.3,45.5,169.8,48.8,171.3,51.5z"/>
</g>
<g>
	<path class="st0" d="M218.4,57.6c-0.7,2.2,0,4.6,1.6,6.5c0.1-0.2,0.3-0.5,0.4-0.7c0.3-0.5,0.6-1,0.9-1.5c0.3-0.5,0.5-1.1,0.7-1.6
		c0.1-0.3,0.2-0.6,0.2-0.9c0-0.3,0.1-0.6,0-0.9c0.1,0.3,0.1,0.6,0.1,0.9c0,0.3-0.1,0.6-0.1,0.9c-0.1,0.6-0.3,1.2-0.5,1.7
		c-0.2,0.6-0.5,1.1-0.7,1.7c-0.1,0.3-0.3,0.6-0.4,0.9c2.6-0.3,4.8-1.9,5.5-4.2c0.8-2.4-0.1-5.1-2.1-7.1
		C221.4,53.6,219.1,55.2,218.4,57.6z"/>
</g>
<g>
	<path class="st0" d="M208.4,34.2c-1.7,2.3-4.7,3.4-7.8,3.1c0.1-0.3,0.2-0.6,0.4-1c0.3-0.7,0.6-1.4,0.9-2c0.3-0.7,0.7-1.3,1.1-1.9
		c0.2-0.3,0.5-0.6,0.7-0.9c0.3-0.3,0.6-0.5,0.9-0.7c-0.4,0.1-0.7,0.4-1,0.6s-0.6,0.5-0.8,0.8c-0.5,0.6-1,1.2-1.4,1.8
		s-0.8,1.3-1.2,1.9c-0.2,0.4-0.4,0.7-0.6,1.1c-1.6-2.9-1.6-6.2,0.3-8.7c1.9-2.5,5.3-3.6,8.7-3C210.3,28.2,210.3,31.6,208.4,34.2z"/>
</g>
<g>
	<path class="st0" d="M140.2,44c1.2,2.9,0.6,6.2-1.3,8.9c-0.2-0.3-0.5-0.6-0.7-0.9c-0.5-0.6-1-1.3-1.4-2s-0.8-1.4-1.2-2.1
		c-0.2-0.4-0.3-0.7-0.4-1.1c-0.1-0.4-0.2-0.8-0.2-1.2c-0.1,0.4,0,0.9,0,1.3c0.1,0.4,0.2,0.8,0.3,1.2c0.2,0.8,0.6,1.5,0.9,2.3
		c0.4,0.7,0.7,1.5,1.2,2.2c0.2,0.4,0.5,0.8,0.7,1.1c-3.5-0.2-6.6-2-7.9-5.1c-1.3-3.2-0.5-6.8,1.9-9.7
		C135.7,39.1,138.9,40.9,140.2,44z"/>
</g>
<g>
	<path class="st0" d="M158.7,32.2c1,3.5,0,7.2-2.3,9.9c-0.2-0.4-0.4-0.7-0.6-1.1c-0.5-0.8-0.9-1.7-1.3-2.5c-0.4-0.9-0.8-1.7-1-2.6
		c-0.1-0.5-0.2-0.9-0.3-1.4s-0.1-0.9,0-1.4c-0.1,0.5-0.1,1-0.1,1.4c0,0.5,0.1,1,0.2,1.4c0.2,0.9,0.4,1.9,0.8,2.8
		c0.3,0.9,0.7,1.8,1,2.7c0.2,0.5,0.4,1,0.6,1.4c-3.8-0.9-6.9-3.5-7.9-7.3c-1.1-3.9,0.2-7.9,3-10.7C154.5,25.7,157.7,28.4,158.7,32.2
		z"/>
</g>
<g>
	<path class="st0" d="M221.1,81.8c-1.8,3.1-2.1,6.6-1,9.4c0.3-0.3,0.6-0.6,0.8-0.9c0.6-0.7,1.2-1.4,1.8-2.1s1.1-1.5,1.6-2.3
		c0.2-0.4,0.5-0.8,0.7-1.2c0.2-0.4,0.4-0.8,0.4-1.3c0,0.4-0.2,0.9-0.3,1.3c-0.2,0.4-0.3,0.9-0.6,1.3c-0.4,0.8-0.9,1.6-1.4,2.4
		s-1.1,1.6-1.6,2.3c-0.3,0.4-0.6,0.8-0.9,1.2c3.3-0.3,6.6-2.3,8.6-5.7c2-3.4,2.1-7.2,0.6-10.2C226.5,76.3,223.1,78.4,221.1,81.8z"/>
</g>
<g>
	<path class="st0" d="M141.6,108.5c3,4.3,8,6.5,13.2,6.4c-0.2-0.6-0.4-1.1-0.7-1.7c-0.5-1.3-1-2.5-1.6-3.7s-1.2-2.4-2-3.5
		c-0.4-0.6-0.8-1.1-1.2-1.6c-0.5-0.5-1-1-1.6-1.3c0.6,0.3,1.2,0.7,1.7,1.2s1,1,1.4,1.5c0.9,1.1,1.7,2.2,2.4,3.3
		c0.7,1.2,1.4,2.3,2.1,3.6c0.4,0.7,0.7,1.3,1,2c2.5-4.9,2.3-10.8-0.9-15.4c-3.3-4.7-9-6.9-14.6-6.3
		C138.2,97.8,138.3,103.8,141.6,108.5z"/>
</g>
<g>
	<g>
		<path class="st0" d="M75.4,291.6l-16.4-26c10.6-0.9,21.4-5.8,21.4-18.7c0-11.7-9.8-18.5-28.3-18.5H13.9v4.6
			c2.8,0.3,9.9,2.3,9.9,7.5V290c0,6.1-5.4,7.5-9.5,7.9v5h31.8v-4.5c-5-1-9.4-3.2-9.4-8.7v-24h7.4l23.1,37.1h20v-4.6
			C83.7,298,79.1,297.4,75.4,291.6z M36.8,259.7v-18.1c0-5.4,2.8-7.5,11.8-7.5c9.1,0,18,3.5,18,12.9c0,8.6-7.3,12.8-14.6,12.8
			L36.8,259.7L36.8,259.7z"/>
	</g>
	<g>
		<path class="st0" d="M139.7,227.9v4.7c3.8,0.9,9.6,2.5,9.6,8.2V277c0,11.9-7.2,18.7-17.2,18.7c-8.4,0-16.7-5.2-16.7-15.6v-40.7
			c0-5.2,5.8-6.2,9-7.2v-4.5H92.1v4.4c3.2,0.8,9.5,2.9,9.5,8.8V280c0,15.1,11.9,24.2,28.5,24.2c16.7,0,27.6-10.1,27.6-26.6v-36.9
			c0-5.2,5.4-7.2,9.6-8.4v-4.5L139.7,227.9L139.7,227.9z"/>
	</g>
	<g>
		<path class="st0" d="M220.4,203.6l-12,9.7l-11.3-9.7h-3.8l13.8,19h3.1l13.8-19H220.4z M233.2,280.1l-2.9,4.2
			c-3.1,4.7-11.1,12-24,12h-17.6l46.6-64v-4.6H183l-7.8,17l4.3,1.9l4.1-5.2c3.2-4.1,7.3-7.2,18.3-7.2h15.8l-47.6,64.1v4.1h57.8
			l9-20.5L233.2,280.1z"/>
	</g>
	<g>
		<path class="st0" d="M280.1,232.5v-4.7h-31.2v4.5c4.9,0.9,8.8,2.3,8.8,7.9v49.9c0,6-4.3,7.1-8.8,7.6v4.5h31.2v-4.5
			c-5-0.5-9.4-2.1-9.4-7.7v-49.7C270.6,234.9,275.8,233.2,280.1,232.5z"/>
	</g>
	<g>
		<path class="st0" d="M331.8,201.2c-3,0-5.2,2-6.1,4.6l-5.1,14.1l2.5,1.5l10.1-9.9c2.3-2.3,2.9-3.4,2.9-6
			C336.1,203,334.3,201.2,331.8,201.2z M345.3,279.6c-1.7,7.3-8,19.5-21.8,19.5c-12.1,0-19.8-10.4-19.8-31.3
			c0-27.4,7.4-35.2,19.2-35.2c8.4,0,16.6,6.7,22.2,14.5l4-2.1l-7.4-18h-4.2l-2.9,2.8c-1.6-1.1-5.7-3.5-13.4-3.5
			c-20.3,0-32.4,17.2-32.4,40.9c0,25.8,15.6,38.3,33.5,38.3c18.5,0,26.7-13.2,29.3-24.1L345.3,279.6z"/>
	</g>
</g>
<path class="st0" d="M295.1,183.9c-0.2-0.1-0.4-0.2-0.6-0.2c-4.2-1.2-6.6-4.8-9.2-8c-1.5-1.9-3.1-3.7-4.6-5.6
	c-1.6-2.1-3.3-4.1-5.3-5.9c-4.3-3.7-9.6-5.5-14.9-7.4c-4.8-1.7-9.1-3.9-13.2-7c-4-3.1-7.8-6.5-11.9-9.4c-4.4-3.1-9.4-5.3-14.7-6.2
	c-5.7-1-11.5-0.7-17.2,0.5c-5,1-10.2,2.8-14.6,5.5c-1.4,0.6-2.6,0.9-3.7,0.9c-3.9,0-5.1-3.8-5.1-3.8c-0.7-3.1-0.8-7-0.8-9.8
	c0-18.8,13.3-29.9,13.3-29.9c-12.5-1-17.3,8.7-17.3,8.7c-1.9-16.4-20.2-16.4-20.2-16.4c15,18.6,13.8,39.2,10.5,52.5
	c-1.7,6.3-9.4,6.2-11.6,6.1c-3.7-1-7.7-1.1-11.5-0.9c-3.1,0.2-6.4,0.5-9.4,1.4c-2.8,0.9-5.4,2.3-8.2,3.3c-1.2,0.5-2.6,0.9-3.9,1
	c-1.1,0.1-2.7-0.1-3.9-0.1c-2.7-0.1-5.4,0-8.1,0.4c-8.6,1.2-16.2,5.7-22,12c-2.8,3.1-5.2,6.5-7.5,10c-1.8,2.7-3.4,5.5-5.4,8.1
	c-0.1,0.1-0.1,0.2-0.1,0.2c-18.1,0.7-36.1,1.6-54.2,2.9c27.1,2,54.1,3,81.2,3.8c27.1,0.7,54.1,1,81.2,1s54.1-0.3,81.2-1
	s54.1-1.8,81.2-3.8C328.1,185.5,311.6,184.6,295.1,183.9z M182.2,181.9c-27.1,0-54.1,0.3-81.2,1c-6.6,0.2-13.2,0.4-19.8,0.6
	c0.8-1.3,1.7-2.6,2.5-3.9c0.9-1.3,1.7-2.7,2.6-4c0.4-0.7,0.9-1.3,1.4-1.9c0.2-0.3,0.5-0.6,0.7-1l0.1-0.1c0.2-0.2,0.4-0.4,0.5-0.6
	c1.1-1.4,2.3-2.7,3.6-4c0.6-0.6,1.3-1.3,2-1.9c0.3-0.3,0.6-0.5,1-0.8c0,0,0.3-0.2,0.4-0.3s0.3-0.2,0.4-0.3c1.6-1.2,3.4-2.2,5.2-3.1
	c0.2-0.1,0.3-0.1,0.5-0.2c0,0,0.3-0.1,0.5-0.2c0.4-0.2,0.8-0.3,1.2-0.5c1.1-0.4,2.2-0.7,3.3-1c2.4-0.6,3.9-0.8,6.3-0.9
	c2.6-0.1,5.2,0.4,7.8,0.1c5.9-0.5,10.7-4.2,16.4-5.2c2.8-0.5,5.9-0.6,8.7-0.6s5.6,0.4,8.2,1.4c5,2,7.9,6.9,11.6,10.4
	c5.1,4.9,11.8,7,18.2,9.5c4.1,1.6,9.2,3.9,11.9,7.4C191.5,181.9,186.9,181.9,182.2,181.9z M263.4,182.9c-20.2-0.5-40.5-0.8-60.7-1
	c-4.5-10.1-16.3-11.2-25.2-16.3c-0.6-0.3-9.1-8.1,12.6-19.9c1.5-0.8,2.8-1.4,3.7-1.8c0.9-0.5,1.5-0.7,1.5-0.7c2.3-1,4.6-1.8,7-2.4
	c5-1.3,10.3-1.9,15.5-1.2c5,0.6,9.6,2.5,13.8,5.3c4,2.6,7.5,5.9,11.2,8.8c4.3,3.3,8.7,6,13.8,7.9c4.6,1.7,9.6,3,13.6,5.9
	c2.2,1.6,4,3.9,5.8,6.1c1.7,2.1,3.4,4.1,5.1,6.2c0.9,1.1,1.9,2.5,3,3.8C277.3,183.3,270.4,183.1,263.4,182.9z"/>
</svg>
