<?xml version="1.0" encoding="utf-8"?>
<!-- Generator: Adobe Illustrator 24.0.2, SVG Export Plug-In . SVG Version: 6.00 Build 0)  -->
<svg version="1.1" id="Layer_2" xmlns="http://www.w3.org/2000/svg" xmlns:xlink="http://www.w3.org/1999/xlink" x="0px" y="0px"
	 width="319.5px" height="100px" viewBox="0 0 319.5 100" style="enable-background:new 0 0 319.5 100;" xml:space="preserve">
<style type="text/css">
	.st0{fill:#074C07;}
	.st1{fill:#9E0E0E;}
</style>
<g>
	<g>
		<path class="st0" d="M185.4,64.5l-7.7-12.2c5-0.4,10-2.7,10-8.8c0-5.5-4.6-8.7-13.3-8.7h-18v2.2c1.3,0.1,4.7,1.1,4.7,3.5v23.2
			c0,2.9-2.5,3.5-4.4,3.7v2.3h14.9v-2.1c-2.3-0.4-4.4-1.5-4.4-4.1V52.3h3.5l10.9,17.5h9.4v-2.2C189.4,67.5,187.2,67.2,185.4,64.5z
			 M167.3,49.5V41c0-2.6,1.3-3.5,5.6-3.5c4.3,0,8.5,1.7,8.5,6.1c0,4-3.4,6-6.9,6H167.3z"/>
	</g>
	<g>
		<path class="st0" d="M215.6,34.5v2.2c1.8,0.4,4.5,1.2,4.5,3.9v17c0,5.6-3.4,8.8-8.1,8.8c-4,0-7.9-2.5-7.9-7.3V40
			c0-2.4,2.7-2.9,4.2-3.4v-2.1h-15.2v2.1c1.5,0.4,4.4,1.3,4.4,4.1V59c0,7.1,5.6,11.4,13.4,11.4c7.9,0,13-4.8,13-12.5V40.6
			c0-2.4,2.5-3.4,4.5-3.9v-2.1H215.6z"/>
	</g>
	<g>
		<path class="st0" d="M253.6,23.1l-5.7,4.6l-5.3-4.6h-1.8l6.5,8.9h1.5l6.5-8.9H253.6z M259.6,59l-1.3,2c-1.4,2.2-5.2,5.7-11.3,5.7
			h-8.3l21.9-30.1v-2.2H236l-3.7,8l2,0.9l1.9-2.5c1.5-1.9,3.5-3.4,8.6-3.4h7.4L230,67.6v1.9h27.1l4.2-9.6L259.6,59z"/>
	</g>
	<g>
		<path class="st0" d="M281.6,36.7v-2.2h-14.7v2.1c2.3,0.4,4.1,1.1,4.1,3.7v23.5c0,2.8-2,3.3-4.1,3.6v2.1h14.7v-2.1
			c-2.3-0.2-4.4-1-4.4-3.6V40.4C277.2,37.8,279.6,37,281.6,36.7z"/>
	</g>
	<g>
		<path class="st0" d="M305.9,22c-1.4,0-2.4,0.9-2.9,2.2l-2.4,6.6l1.2,0.7l4.8-4.7c1.1-1.1,1.3-1.6,1.3-2.8
			C307.9,22.8,307.1,22,305.9,22z M312.2,58.8c-0.8,3.5-3.8,9.2-10.2,9.2c-5.7,0-9.3-4.9-9.3-14.7c0-12.9,3.5-16.6,9-16.6
			c3.9,0,7.8,3.1,10.5,6.8l1.9-1l-3.5-8.4h-2l-1.3,1.3c-0.8-0.5-2.7-1.7-6.3-1.7c-9.6,0-15.2,8.1-15.2,19.2c0,12.1,7.3,18,15.7,18
			c8.7,0,12.6-6.2,13.8-11.3L312.2,58.8z"/>
	</g>
</g>
<g>
	<g>
		<g>
			<g>
				<path class="st0" d="M54,33.7c-0.1,0-0.3,0-0.4-0.2c0-0.1-1.2-2.8-0.4-4.8c0.1-0.2,0.3-0.3,0.4-0.2c0.2,0.1,0.3,0.3,0.2,0.4
					c-0.7,1.8,0.4,4.3,0.4,4.4C54.3,33.5,54.3,33.7,54,33.7C54.1,33.7,54,33.7,54,33.7z"/>
			</g>
		</g>
		<g>
			<g>
				<path class="st1" d="M53.4,32.4c0,0-1.1,0.6-3.4,0.7c-1.7,0.1-2.3,4.1,0.4,7.5c2.7,3.5,3.2,3.9,4.9,3.4c1.7-0.5,0.6-0.8,2.4-0.8
					s3-1,3.7-1.9c0.6-1,2.3-4.1,0.5-8.5s-6.7-2.3-7.3-1.5C54.4,31.7,54,32.2,53.4,32.4z"/>
			</g>
		</g>
		<g>
			<g>
				<path class="st0" d="M51.9,29.9c0.5,0.7,0.7,1.5,0.5,2.2c-0.1-0.1-0.2-0.1-0.2-0.2c-0.2-0.2-0.3-0.3-0.5-0.5
					c-0.2-0.2-0.3-0.3-0.4-0.5c-0.1-0.1-0.1-0.2-0.2-0.3c-0.1-0.1-0.1-0.2-0.1-0.3c0,0.1,0.1,0.2,0.1,0.3c0,0.1,0.1,0.2,0.2,0.3
					c0.1,0.2,0.3,0.4,0.4,0.6c0.1,0.2,0.3,0.4,0.4,0.5c0.1,0.1,0.2,0.2,0.3,0.3c-0.8,0-1.6-0.5-2.2-1.2c-0.6-0.8-0.7-1.7-0.5-2.4
					C50.4,28.7,51.3,29.1,51.9,29.9z"/>
			</g>
		</g>
	</g>
	<g>
		<g>
			<g>
				<path class="st0" d="M77.3,33.6c-0.1-0.1-0.1-0.2-0.1-0.2c0-0.1,0.8-1.6,2-2c0.1,0,0.2,0,0.2,0.1c0,0.1,0,0.2-0.1,0.2
					c-1.1,0.4-1.8,1.8-1.8,1.8C77.6,33.6,77.5,33.6,77.3,33.6C77.4,33.6,77.3,33.6,77.3,33.6z"/>
			</g>
		</g>
		<g>
			<g>
				<path class="st1" d="M77.7,32.8c0,0-0.7-0.2-1.6-1.2c-0.7-0.7-2.7,0.5-3.2,3c-0.5,2.5-0.5,2.9,0.3,3.5c0.9,0.6,0.6,0,1.2,0.8
					c0.7,0.8,1.6,1,2.2,0.9c0.7-0.1,2.7-0.5,4-3c1.3-2.5-1.5-3.9-2.1-3.8C78.4,33,78,33,77.7,32.8z"/>
			</g>
		</g>
		<g>
			<g>
				<path class="st0" d="M78.2,31.1c-0.1,0.5-0.4,0.9-0.8,1.1c0-0.1,0-0.1,0-0.2c0-0.1,0-0.3,0-0.4c0-0.1,0-0.3,0.1-0.4
					c0-0.1,0-0.1,0.1-0.2c0-0.1,0-0.1,0.1-0.2c0,0.1-0.1,0.1-0.1,0.2c0,0.1,0,0.1-0.1,0.2c0,0.1-0.1,0.3-0.1,0.4
					c0,0.1,0,0.3-0.1,0.4c0,0.1,0,0.1,0,0.2c-0.3-0.4-0.4-0.9-0.3-1.4c0.1-0.6,0.5-1,0.9-1.1C78.2,30,78.4,30.6,78.2,31.1z"/>
			</g>
		</g>
	</g>
	<g>
		<g>
			<g>
				<path class="st0" d="M90.1,39.3c-0.1,0-0.2-0.1-0.2-0.2c0-0.1-0.3-1.9,0.4-3.1c0.1-0.1,0.2-0.1,0.3-0.1c0.1,0.1,0.1,0.2,0.1,0.3
					c-0.7,1-0.4,2.8-0.4,2.8C90.4,39.2,90.3,39.3,90.1,39.3C90.2,39.3,90.1,39.3,90.1,39.3z"/>
			</g>
		</g>
		<g>
			<g>
				<path class="st1" d="M89.9,38.4c0,0-0.7,0.2-2.2,0c-1.1-0.2-2,2.2-0.9,4.8c1.2,2.6,1.4,2.9,2.6,2.9s0.5-0.4,1.6-0.1
					s2-0.2,2.6-0.7c0.5-0.5,2-2.2,1.6-5.3c-0.4-3-3.9-2.4-4.3-2C90.7,38.1,90.4,38.4,89.9,38.4z"/>
			</g>
		</g>
		<g>
			<g>
				<path class="st0" d="M89.3,36.6c0.2,0.5,0.2,1.1,0,1.5c0-0.1-0.1-0.1-0.1-0.2c-0.1-0.1-0.2-0.2-0.2-0.4
					c-0.1-0.1-0.1-0.3-0.2-0.4c0-0.1-0.1-0.1-0.1-0.2c0-0.1,0-0.1,0-0.2c0,0.1,0,0.1,0,0.2c0,0.1,0,0.1,0.1,0.2
					c0,0.1,0.1,0.3,0.2,0.4c0.1,0.1,0.1,0.3,0.2,0.4c0,0.1,0.1,0.1,0.1,0.2c-0.5-0.1-1-0.5-1.2-1.1c-0.2-0.6-0.2-1.2,0.1-1.6
					C88.6,35.7,89.1,36.1,89.3,36.6z"/>
			</g>
		</g>
	</g>
	<g>
		<g>
			<g>
				<path class="st0" d="M77.2,10.9c-0.1,0-0.2-0.1-0.2-0.2c0-0.1-0.1-2.2,0.9-3.4c0.1-0.1,0.2-0.1,0.3,0c0.1,0.1,0.1,0.2,0,0.3
					c-0.9,1.1-0.8,3-0.8,3.1C77.5,10.8,77.4,10.9,77.2,10.9C77.2,10.9,77.2,10.9,77.2,10.9z"/>
			</g>
		</g>
		<g>
			<g>
				<path class="st1" d="M77.1,9.8c0,0-0.9,0.1-2.5-0.4c-1.2-0.4-2.6,2.2-1.6,5.2s1.2,3.5,2.5,3.6s0.6-0.4,1.8,0.1
					c1.2,0.4,2.3,0.1,3-0.4s2.6-2.2,2.5-5.7c0-3.5-4-3.3-4.6-2.9C78,9.6,77.6,9.8,77.1,9.8z"/>
			</g>
		</g>
		<g>
			<g>
				<path class="st0" d="M76.7,7.7c0.2,0.6,0.1,1.2-0.2,1.6c0-0.1-0.1-0.1-0.1-0.2c-0.1-0.1-0.1-0.3-0.2-0.5C76.1,8.6,76,8.4,76,8.3
					c0-0.1,0-0.2-0.1-0.2c0-0.1,0-0.2,0-0.2c0,0.1,0,0.2,0,0.2c0,0.1,0,0.2,0,0.2c0,0.2,0.1,0.3,0.1,0.5c0.1,0.2,0.1,0.3,0.2,0.5
					c0,0.1,0.1,0.2,0.1,0.3c-0.5-0.2-1-0.7-1.2-1.4c-0.2-0.7-0.1-1.3,0.3-1.8C76,6.5,76.5,7.1,76.7,7.7z"/>
			</g>
		</g>
	</g>
	<g>
		<path class="st0" d="M90.9,29.8c-1.3,1.4-3.3,1.9-5.1,1.6c0.1-0.2,0.2-0.4,0.3-0.6c0.3-0.4,0.5-0.9,0.8-1.3
			c0.3-0.4,0.6-0.8,0.9-1.2c0.2-0.2,0.3-0.4,0.5-0.5c0.2-0.2,0.4-0.3,0.6-0.4c-0.2,0.1-0.5,0.2-0.7,0.3c-0.2,0.1-0.4,0.3-0.6,0.5
			c-0.4,0.3-0.7,0.7-1.1,1.1c-0.3,0.4-0.6,0.8-0.9,1.2c-0.2,0.2-0.3,0.4-0.5,0.7c-0.6-1.9-0.3-4.1,1.1-5.6c1.4-1.5,3.6-2,5.7-1.5
			C92.7,26.1,92.4,28.3,90.9,29.8z"/>
	</g>
	<g>
		<path class="st0" d="M64.3,33.5c0.8,1.7,2.4,2.8,4.2,3c0-0.2-0.1-0.4-0.1-0.6c-0.1-0.5-0.2-0.9-0.3-1.4c-0.1-0.5-0.3-0.9-0.5-1.4
			c-0.1-0.2-0.2-0.4-0.3-0.6c-0.1-0.2-0.3-0.4-0.5-0.6c0.2,0.1,0.4,0.3,0.5,0.5c0.2,0.2,0.3,0.4,0.4,0.6c0.2,0.4,0.5,0.9,0.6,1.3
			c0.2,0.5,0.4,0.9,0.5,1.4c0.1,0.3,0.2,0.5,0.2,0.8c1.2-1.6,1.5-3.7,0.6-5.5c-0.9-1.8-2.7-2.9-4.8-3.1
			C63.7,29.6,63.4,31.7,64.3,33.5z"/>
	</g>
	<g>
		<path class="st0" d="M86.4,54.9c-0.9,1.2-2.3,1.7-3.7,1.6c0.1-0.2,0.2-0.3,0.2-0.5c0.2-0.3,0.4-0.7,0.6-1c0.2-0.3,0.4-0.7,0.6-1
			c0.1-0.2,0.2-0.3,0.4-0.4c0.1-0.1,0.3-0.3,0.5-0.4c-0.2,0.1-0.3,0.2-0.5,0.3c-0.2,0.1-0.3,0.3-0.4,0.4c-0.3,0.3-0.5,0.6-0.7,0.9
			c-0.2,0.3-0.5,0.6-0.7,1c-0.1,0.2-0.2,0.4-0.3,0.5c-0.5-1.4-0.2-3,0.8-4.3c1-1.3,2.6-1.8,4.1-1.6C87.7,52,87.5,53.6,86.4,54.9z"/>
	</g>
	<g>
		<path class="st0" d="M82.8,44.3c-1,0.9-2.5,1.1-3.8,0.8c0.1-0.1,0.2-0.3,0.3-0.4c0.2-0.3,0.4-0.6,0.6-0.8c0.2-0.3,0.5-0.5,0.7-0.8
			c0.1-0.1,0.3-0.2,0.4-0.3c0.1-0.1,0.3-0.2,0.5-0.2c-0.2,0-0.4,0.1-0.5,0.2c-0.2,0.1-0.3,0.2-0.5,0.3c-0.3,0.2-0.6,0.5-0.8,0.7
			c-0.3,0.3-0.5,0.5-0.7,0.8c-0.1,0.1-0.3,0.3-0.4,0.4c-0.4-1.4,0-3,1.1-3.9c1.1-1,2.7-1.2,4.2-0.6C84.3,41.8,84,43.3,82.8,44.3z"/>
	</g>
	<g>
		<path class="st0" d="M74.2,25.3c0.7,1.2,2,1.9,3.4,2c0-0.2-0.1-0.3-0.1-0.5c-0.1-0.3-0.2-0.7-0.3-1c-0.1-0.3-0.2-0.7-0.4-1
			c-0.1-0.2-0.2-0.3-0.3-0.5c-0.1-0.1-0.2-0.3-0.4-0.4c0.2,0.1,0.3,0.2,0.4,0.4c0.1,0.1,0.2,0.3,0.3,0.4c0.2,0.3,0.4,0.6,0.5,0.9
			c0.2,0.3,0.3,0.7,0.4,1c0.1,0.2,0.1,0.4,0.2,0.5c0.9-1.2,1.2-2.8,0.5-4.1c-0.7-1.3-2.2-2-3.9-2C73.7,22.4,73.5,24,74.2,25.3z"/>
	</g>
	<g>
		<path class="st0" d="M96.7,28.2c-0.3,1.1,0,2.2,0.8,3.1c0.1-0.1,0.1-0.2,0.2-0.3c0.2-0.2,0.3-0.5,0.4-0.7c0.1-0.3,0.3-0.5,0.3-0.8
			c0-0.1,0.1-0.3,0.1-0.4c0-0.1,0-0.3,0-0.4c0,0.1,0,0.3,0,0.4c0,0.1,0,0.3-0.1,0.4c-0.1,0.3-0.2,0.6-0.3,0.8
			c-0.1,0.3-0.2,0.5-0.3,0.8c-0.1,0.1-0.1,0.3-0.2,0.4c1.3-0.2,2.3-0.9,2.7-2c0.4-1.2-0.1-2.4-1-3.4C98.2,26.3,97.1,27.1,96.7,28.2z
			"/>
	</g>
	<g>
		<path class="st0" d="M92,17c-0.8,1.1-2.3,1.6-3.8,1.5c0.1-0.2,0.1-0.3,0.2-0.5c0.1-0.3,0.3-0.7,0.4-1c0.2-0.3,0.3-0.6,0.5-0.9
			c0.1-0.1,0.2-0.3,0.3-0.4c0.1-0.1,0.3-0.2,0.4-0.3c-0.2,0.1-0.3,0.2-0.5,0.3c-0.1,0.1-0.3,0.2-0.4,0.4c-0.2,0.3-0.5,0.6-0.7,0.9
			c-0.2,0.3-0.4,0.6-0.6,0.9c-0.1,0.2-0.2,0.3-0.3,0.5c-0.8-1.4-0.8-3,0.1-4.2c0.9-1.2,2.5-1.7,4.2-1.4C92.9,14.2,92.9,15.8,92,17z"
			/>
	</g>
	<g>
		<path class="st0" d="M59.3,21.7c0.6,1.4,0.3,3-0.6,4.3c-0.1-0.1-0.2-0.3-0.3-0.4c-0.2-0.3-0.5-0.6-0.7-0.9c-0.2-0.3-0.4-0.7-0.6-1
			c-0.1-0.2-0.1-0.4-0.2-0.5c0-0.2-0.1-0.4-0.1-0.6c0,0.2,0,0.4,0,0.6c0,0.2,0.1,0.4,0.1,0.6c0.1,0.4,0.3,0.7,0.4,1.1
			c0.2,0.4,0.4,0.7,0.6,1c0.1,0.2,0.2,0.4,0.3,0.5c-1.7-0.1-3.2-0.9-3.8-2.4c-0.6-1.5-0.2-3.3,0.9-4.6
			C57.2,19.3,58.7,20.2,59.3,21.7z"/>
	</g>
	<g>
		<path class="st0" d="M68.2,16.1c0.5,1.7,0,3.4-1.1,4.8c-0.1-0.2-0.2-0.4-0.3-0.5c-0.2-0.4-0.4-0.8-0.6-1.2
			c-0.2-0.4-0.4-0.8-0.5-1.3c-0.1-0.2-0.1-0.4-0.2-0.7c0-0.2,0-0.5,0-0.7c-0.1,0.2-0.1,0.5-0.1,0.7c0,0.2,0,0.5,0.1,0.7
			c0.1,0.5,0.2,0.9,0.4,1.3c0.1,0.4,0.3,0.9,0.5,1.3c0.1,0.2,0.2,0.5,0.3,0.7c-1.8-0.4-3.3-1.7-3.8-3.5c-0.5-1.8,0.1-3.8,1.5-5.1
			C66.1,12.9,67.7,14.2,68.2,16.1z"/>
	</g>
	<g>
		<path class="st0" d="M98.1,39.8c-0.9,1.5-1,3.1-0.5,4.5c0.1-0.2,0.3-0.3,0.4-0.5c0.3-0.3,0.6-0.7,0.9-1c0.3-0.3,0.5-0.7,0.8-1.1
			c0.1-0.2,0.2-0.4,0.3-0.6c0.1-0.2,0.2-0.4,0.2-0.6c0,0.2-0.1,0.4-0.2,0.6c-0.1,0.2-0.2,0.4-0.3,0.6c-0.2,0.4-0.4,0.8-0.7,1.2
			c-0.2,0.4-0.5,0.7-0.8,1.1c-0.1,0.2-0.3,0.4-0.4,0.6c1.6-0.1,3.2-1.1,4.1-2.7c1-1.6,1-3.5,0.3-4.9C100.6,37.2,99,38.2,98.1,39.8z"
			/>
	</g>
	<g>
		<path class="st0" d="M60,52.6c1.4,2,3.8,3.1,6.3,3c-0.1-0.3-0.2-0.5-0.3-0.8c-0.2-0.6-0.5-1.2-0.8-1.8c-0.3-0.6-0.6-1.1-0.9-1.7
			c-0.2-0.3-0.4-0.5-0.6-0.8c-0.2-0.2-0.5-0.5-0.7-0.6c0.3,0.1,0.6,0.3,0.8,0.6c0.2,0.2,0.5,0.5,0.7,0.7c0.4,0.5,0.8,1,1.2,1.6
			c0.4,0.6,0.7,1.1,1,1.7c0.2,0.3,0.3,0.6,0.5,0.9c1.2-2.4,1.1-5.2-0.4-7.4c-1.6-2.2-4.3-3.3-7-3C58.3,47.5,58.4,50.3,60,52.6z"/>
	</g>
	<path class="st0" d="M133.5,88.7c-0.1,0-0.2-0.1-0.3-0.1c-2-0.6-3.2-2.3-4.4-3.8c-0.7-0.9-1.5-1.8-2.2-2.7c-0.8-1-1.6-2-2.5-2.8
		c-2-1.8-4.6-2.6-7.1-3.5c-2.3-0.8-4.4-1.9-6.3-3.4c-1.9-1.5-3.7-3.1-5.7-4.5c-2.1-1.5-4.5-2.6-7-3c-2.7-0.5-5.5-0.3-8.2,0.2
		c-2.4,0.5-4.9,1.3-7,2.6c-0.7,0.3-1.3,0.4-1.8,0.4c-1.9,0-2.4-1.8-2.4-1.8c-0.3-1.5-0.4-3.3-0.4-4.7c0-9,6.4-14.3,6.4-14.3
		c-6-0.5-8.3,4.1-8.3,4.1c-0.9-7.8-9.7-7.8-9.7-7.8c7.2,8.9,6.6,18.8,5,25.2c-0.8,3-4.5,3-5.5,2.9c-1.8-0.5-3.7-0.6-5.5-0.4
		c-1.5,0.1-3,0.2-4.5,0.7c-1.3,0.4-2.6,1.1-3.9,1.6c-0.6,0.2-1.2,0.4-1.9,0.5c-0.5,0.1-1.3,0-1.9-0.1c-1.3-0.1-2.6,0-3.9,0.2
		c-4.1,0.6-7.8,2.7-10.5,5.8c-1.3,1.5-2.5,3.1-3.6,4.8c-0.8,1.3-1.6,2.6-2.6,3.9c0,0,0,0.1-0.1,0.1C19,89,10.3,89.4,1.7,90
		c13,1,25.9,1.4,38.9,1.8c13,0.3,25.9,0.5,38.9,0.5c13,0,25.9-0.2,38.9-0.5c13-0.4,25.9-0.9,38.9-1.8
		C149.3,89.5,141.4,89,133.5,88.7z M79.4,87.7c-13,0-25.9,0.2-38.9,0.5c-3.2,0.1-6.3,0.2-9.5,0.3c0.4-0.6,0.8-1.2,1.2-1.9
		c0.4-0.6,0.8-1.3,1.3-1.9c0.2-0.3,0.4-0.6,0.7-0.9c0.1-0.2,0.2-0.3,0.3-0.5c0,0,0,0,0.1-0.1c0.1-0.1,0.2-0.2,0.2-0.3
		c0.5-0.7,1.1-1.3,1.7-1.9c0.3-0.3,0.6-0.6,1-0.9c0.2-0.1,0.3-0.3,0.5-0.4c0,0,0.2-0.1,0.2-0.1c0.1-0.1,0.1-0.1,0.2-0.2
		c0.8-0.6,1.6-1.1,2.5-1.5c0.1,0,0.2-0.1,0.2-0.1c0,0,0.2-0.1,0.2-0.1c0.2-0.1,0.4-0.1,0.6-0.2c0.5-0.2,1-0.3,1.6-0.5
		c1.1-0.3,1.9-0.4,3-0.4c1.2-0.1,2.5,0.2,3.7,0.1c2.8-0.2,5.1-2,7.8-2.5c1.3-0.2,2.8-0.3,4.2-0.3c1.3,0,2.7,0.2,3.9,0.7
		c2.4,1,3.8,3.3,5.6,5c2.4,2.3,5.6,3.3,8.7,4.5c2,0.8,4.4,1.8,5.7,3.6C83.9,87.7,81.7,87.7,79.4,87.7z M118.3,88.2
		c-9.7-0.3-19.4-0.4-29.1-0.5c-2.1-4.8-7.8-5.4-12.1-7.8c-0.3-0.2-4.4-3.9,6.1-9.5c0.7-0.4,1.3-0.7,1.8-0.9c0.5-0.2,0.7-0.3,0.7-0.3
		c1.1-0.5,2.2-0.9,3.4-1.2c2.4-0.6,4.9-0.9,7.4-0.6c2.4,0.3,4.6,1.2,6.6,2.6c1.9,1.3,3.6,2.8,5.4,4.2c2,1.6,4.2,2.9,6.6,3.8
		c2.2,0.8,4.6,1.4,6.5,2.8c1.1,0.8,1.9,1.9,2.8,2.9c0.8,1,1.6,2,2.4,3c0.4,0.5,0.9,1.2,1.4,1.8C125,88.4,121.6,88.3,118.3,88.2z"/>
</g>
</svg>
