<?xml version="1.0" encoding="utf-8"?>
<!-- Generator: Adobe Illustrator 24.0.2, SVG Export Plug-In . SVG Version: 6.00 Build 0)  -->
<svg version="1.1" id="Layer_1" xmlns="http://www.w3.org/2000/svg" xmlns:xlink="http://www.w3.org/1999/xlink" x="0px" y="0px"
	 viewBox="0 0 42 27" style="enable-background:new 0 0 42 27;" xml:space="preserve">
<style type="text/css">
	.Drop_x0020_Shadow{fill:none;}
	.Outer_x0020_Glow_x0020_5_x0020_pt{fill:none;}
	.Blue_x0020_Neon{fill:none;stroke:#8AACDA;stroke-width:7;stroke-linecap:round;stroke-linejoin:round;}
	.Chrome_x0020_Highlight{fill:url(#SVGID_1_);stroke:#FFFFFF;stroke-width:0.3629;stroke-miterlimit:1;}
	.Jive_GS{fill:#FFDD00;}
	.Alyssa_GS{fill:#A6D0E4;}
	.st0{fill-rule:evenodd;clip-rule:evenodd;}
</style>
<linearGradient id="SVGID_1_" gradientUnits="userSpaceOnUse" x1="0" y1="0.5" x2="6.123234e-17" y2="-0.5">
	<stop  offset="0" style="stop-color:#656565"/>
	<stop  offset="0.618" style="stop-color:#1B1B1B"/>
	<stop  offset="0.6292" style="stop-color:#545454"/>
	<stop  offset="0.9831" style="stop-color:#3E3E3E"/>
</linearGradient>
<path class="st0" d="M2.51,0.5h36.99c1.22,0,2.21,0.99,2.21,2.21v21.58c0,1.22-0.99,2.21-2.21,2.21H2.51
	c-1.22,0-2.21-0.99-2.21-2.21V2.71C0.3,1.49,1.29,0.5,2.51,0.5z M18,21.82c-0.15-0.2-0.38-0.32-0.69-0.32
	c-0.61,0-1.09,0.48-1.09,1.15c0,0.67,0.48,1.15,1.09,1.15c0.31,0,0.54-0.12,0.69-0.32v0.26h0.47v-2.19H18V21.82z M16.71,22.65
	c0,0.39,0.25,0.7,0.66,0.7c0.39,0,0.66-0.3,0.66-0.7c0-0.4-0.27-0.7-0.66-0.7C16.96,21.95,16.71,22.27,16.71,22.65z M14.94,21.51
	c-0.28-0.01-0.57,0.08-0.77,0.39c-0.15-0.24-0.39-0.39-0.72-0.39c-0.25-0.01-0.5,0.11-0.64,0.33v-0.27h-0.47v2.18h0.48v-1.21
	c0-0.38,0.21-0.58,0.54-0.58c0.31,0,0.47,0.2,0.47,0.57v1.21h0.48v-1.21c0-0.38,0.22-0.58,0.54-0.58c0.33,0,0.48,0.2,0.48,0.57v1.21
	h0.48v-1.37C15.8,21.86,15.47,21.51,14.94,21.51z M26.41,21.56v0.26c0.12-0.2,0.34-0.33,0.57-0.33c0.12,0,0.23,0.02,0.34,0.06
	l-0.14,0.45c-0.09-0.04-0.2-0.06-0.3-0.06c-0.31,0-0.46,0.2-0.46,0.56v1.23h-0.47v-2.18H26.41z M29.73,22.2
	c-0.06-0.14-0.14-0.26-0.25-0.36c-0.1-0.1-0.23-0.19-0.38-0.24c-0.3-0.12-0.63-0.12-0.94,0c-0.14,0.06-0.27,0.14-0.37,0.24
	c-0.1,0.1-0.19,0.23-0.24,0.36c-0.12,0.29-0.12,0.62,0,0.91c0.06,0.14,0.14,0.26,0.24,0.36c0.1,0.1,0.23,0.19,0.37,0.24
	c0.3,0.12,0.63,0.12,0.94,0c0.14-0.06,0.27-0.14,0.38-0.24c0.1-0.1,0.19-0.23,0.25-0.36C29.84,22.82,29.84,22.49,29.73,22.2z
	 M29.13,23.16c0.06-0.06,0.11-0.14,0.14-0.22c0.07-0.18,0.07-0.39,0-0.57c-0.03-0.08-0.08-0.16-0.14-0.22
	c-0.06-0.06-0.13-0.11-0.22-0.14c-0.17-0.07-0.36-0.07-0.54,0c-0.08,0.03-0.15,0.08-0.22,0.14c-0.06,0.06-0.11,0.14-0.14,0.22
	c-0.07,0.18-0.07,0.39,0,0.57c0.03,0.08,0.08,0.16,0.14,0.22c0.06,0.06,0.13,0.11,0.22,0.14c0.17,0.07,0.36,0.07,0.54,0
	C28.99,23.27,29.06,23.22,29.13,23.16z M20.02,21.5c-0.64,0-1.09,0.46-1.09,1.15c0,0.7,0.46,1.15,1.12,1.15
	c0.33,0,0.63-0.08,0.89-0.3l-0.23-0.35c-0.18,0.14-0.4,0.23-0.63,0.23c-0.3,0-0.59-0.14-0.65-0.54h1.62
	c0.01-0.06,0.01-0.12,0.01-0.18C21.06,21.97,20.64,21.5,20.02,21.5z M20.01,21.93c-0.34,0-0.53,0.22-0.58,0.53h1.13
	C20.51,22.12,20.32,21.93,20.01,21.93z M24.88,23.35c-0.24,0-0.31-0.15-0.31-0.36V22h0.78v-0.44h-0.78V20.9h-0.48v0.66h-0.44V22
	h0.44v0.99c0,0.51,0.2,0.81,0.76,0.81c0.21,0,0.41-0.06,0.6-0.17l-0.14-0.41C25.17,23.3,25.03,23.34,24.88,23.35z M22.34,22.4
	l0.22,0.03c0.48,0.07,0.77,0.27,0.76,0.66c0,0.41-0.36,0.71-0.99,0.71c-0.35,0-0.68-0.09-0.94-0.28l0.22-0.37
	c0.21,0.15,0.47,0.23,0.73,0.23c0.33,0,0.5-0.09,0.5-0.27c0-0.12-0.13-0.19-0.39-0.23l-0.22-0.03c-0.49-0.07-0.75-0.29-0.75-0.65
	c0-0.44,0.36-0.7,0.91-0.7c0.34,0,0.66,0.08,0.89,0.23l-0.2,0.39c-0.2-0.12-0.44-0.18-0.68-0.19c-0.26,0-0.41,0.09-0.41,0.25
	C21.97,22.33,22.13,22.37,22.34,22.4z M31.59,5.61C28.75,2.76,24.27,2.39,21,4.73c-2.51-1.79-5.81-2.03-8.55-0.61
	C9.72,5.53,8,8.35,8,11.43c0,3.08,1.72,5.9,4.45,7.31c2.74,1.41,6.03,1.18,8.54-0.61c2.51,1.79,5.8,2.03,8.54,0.61
	c2.74-1.41,4.45-4.23,4.45-7.31C34.01,9.24,33.14,7.15,31.59,5.61z M18.57,11.43c0,2.06,0.88,4.03,2.43,5.4
	c1.55-1.37,2.43-3.33,2.43-5.4c0-2.06-0.88-4.03-2.43-5.4C19.45,7.4,18.57,9.37,18.57,11.43z M16.23,18.62c-3.97,0-7.2-3.22-7.2-7.2
	c0-3.97,3.22-7.19,7.2-7.19c1.4-0.01,2.76,0.4,3.92,1.17c-1.67,1.56-2.62,3.74-2.62,6.03c0,2.29,0.95,4.47,2.62,6.03
	C18.99,18.22,17.63,18.63,16.23,18.62z M21.84,17.46c1.16,0.76,2.53,1.17,3.92,1.16c3.98,0,7.2-3.22,7.2-7.19
	c0-3.97-3.22-7.2-7.2-7.2c-1.4-0.01-2.76,0.4-3.92,1.17c1.67,1.56,2.62,3.74,2.62,6.03C24.46,13.72,23.51,15.9,21.84,17.46z"/>
</svg>
