<?xml version="1.0" encoding="utf-8"?>
<!-- Generator: Adobe Illustrator 24.0.2, SVG Export Plug-In . SVG Version: 6.00 Build 0)  -->
<svg version="1.1" id="Layer_1" xmlns="http://www.w3.org/2000/svg" xmlns:xlink="http://www.w3.org/1999/xlink" x="0px" y="0px"
	 viewBox="0 0 42 27" style="enable-background:new 0 0 42 27;" xml:space="preserve">
<style type="text/css">
	.Drop_x0020_Shadow{fill:none;}
	.Outer_x0020_Glow_x0020_5_x0020_pt{fill:none;}
	.Blue_x0020_Neon{fill:none;stroke:#8AACDA;stroke-width:7;stroke-linecap:round;stroke-linejoin:round;}
	.Chrome_x0020_Highlight{fill:url(#SVGID_1_);stroke:#FFFFFF;stroke-width:0.3629;stroke-miterlimit:1;}
	.Jive_GS{fill:#FFDD00;}
	.Alyssa_GS{fill:#A6D0E4;}
	.st0{fill-rule:evenodd;clip-rule:evenodd;}
</style>
<linearGradient id="SVGID_1_" gradientUnits="userSpaceOnUse" x1="0" y1="0.5" x2="6.123234e-17" y2="-0.5">
	<stop  offset="0" style="stop-color:#656565"/>
	<stop  offset="0.618" style="stop-color:#1B1B1B"/>
	<stop  offset="0.6292" style="stop-color:#545454"/>
	<stop  offset="0.9831" style="stop-color:#3E3E3E"/>
</linearGradient>
<path class="st0" d="M2.51,0.5h36.99c1.22,0,2.21,0.99,2.21,2.21v21.58c0,1.22-0.99,2.21-2.21,2.21H2.51
	c-1.22,0-2.21-0.99-2.21-2.21V2.71C0.3,1.49,1.29,0.5,2.51,0.5z M12.45,23.78V22.4c0-0.52-0.32-0.87-0.84-0.87
	c-0.28,0-0.57,0.09-0.78,0.39c-0.16-0.25-0.39-0.39-0.73-0.39c-0.26-0.01-0.51,0.11-0.66,0.32v-0.28H9v2.2h0.44v-1.26
	c0-0.39,0.23-0.57,0.55-0.57c0.32,0,0.5,0.2,0.5,0.57v1.26h0.44v-1.26c0-0.39,0.23-0.57,0.55-0.57s0.5,0.2,0.5,0.57v1.26H12.45z
	 M18.79,21.6h0.8l-0.01,0.38h-0.8v1.05c0,0.23,0.12,0.36,0.34,0.36c0.15,0,0.29-0.04,0.41-0.12l0.14,0.39
	c-0.18,0.1-0.39,0.15-0.6,0.16c-0.55,0-0.73-0.3-0.73-0.8v-1.03h-0.46V21.6h0.46v-0.66h0.44V21.6z M23.66,21.54
	c-0.24-0.01-0.47,0.12-0.6,0.32v-0.28h-0.44v2.2h0.44v-1.23c0-0.36,0.18-0.6,0.48-0.6c0.1,0.01,0.2,0.02,0.3,0.04l0.14-0.41
	C23.87,21.55,23.76,21.54,23.66,21.54z M16.62,21.54c0.34,0,0.66,0.07,0.89,0.23l-0.22,0.35c-0.14-0.07-0.41-0.18-0.68-0.18
	c-0.25,0-0.44,0.12-0.44,0.28c0,0.13,0.18,0.2,0.39,0.23l0.23,0.02c0.48,0.07,0.76,0.25,0.76,0.64c0,0.41-0.34,0.71-0.98,0.71
	c-0.23,0-0.62-0.05-0.94-0.28l0.23-0.34c0.21,0.15,0.47,0.23,0.73,0.23c0.34,0,0.52-0.12,0.52-0.28c0-0.12-0.16-0.21-0.41-0.25
	l-0.23-0.02c-0.47-0.07-0.73-0.28-0.73-0.64C15.72,21.79,16.07,21.54,16.62,21.54z M24.14,22.68c0,0.66,0.44,1.14,1.14,1.14
	c0.32,0,0.55-0.07,0.78-0.25l-0.23-0.34c-0.16,0.13-0.36,0.2-0.57,0.2c-0.39,0-0.68-0.3-0.68-0.73c0-0.43,0.29-0.73,0.68-0.73
	c0.21,0,0.41,0.08,0.57,0.2l0.23-0.34c-0.23-0.18-0.46-0.25-0.78-0.25C24.59,21.54,24.14,22.02,24.14,22.68z M20,22.68
	c0-0.68,0.44-1.14,1.08-1.14c0.62,0,1.03,0.46,1.03,1.14v0.18h-1.62c0.04,0.39,0.36,0.57,0.66,0.57c0.23-0.01,0.46-0.08,0.64-0.23
	L22,23.52c-0.25,0.2-0.57,0.3-0.89,0.3C20.45,23.82,20,23.36,20,22.68z M21.05,21.95c0.32,0,0.55,0.2,0.57,0.55h-1.19
	C20.5,22.18,20.71,21.95,21.05,21.95z M15.13,21.58v1.1v1.1h-0.44V23.5c-0.16,0.2-0.39,0.32-0.71,0.32c-0.62,0-1.08-0.48-1.08-1.14
	c0-0.66,0.46-1.14,1.08-1.14c0.32,0,0.55,0.12,0.71,0.32v-0.28H15.13z M13.37,22.68c0-0.41,0.25-0.73,0.68-0.73
	c0.41,0,0.66,0.32,0.66,0.73c0,0.44-0.28,0.73-0.66,0.73C13.62,23.44,13.37,23.09,13.37,22.68z M29.67,21.86
	c0.13-0.2,0.35-0.33,0.6-0.32c0.1,0.01,0.22,0.02,0.32,0.04L30.44,22c-0.1-0.02-0.2-0.04-0.3-0.04c-0.3,0-0.48,0.23-0.48,0.6v1.23
	h-0.44v-2.2h0.44V21.86z M28.57,22.68v-1.1h-0.44v0.28c-0.16-0.2-0.39-0.32-0.71-0.32c-0.62,0-1.08,0.48-1.08,1.14
	c0,0.66,0.46,1.14,1.08,1.14c0.32,0,0.55-0.12,0.71-0.32v0.28h0.44V22.68z M27.49,21.95c-0.43,0-0.68,0.31-0.68,0.73
	c0,0.41,0.25,0.76,0.68,0.73c0.39,0,0.66-0.29,0.66-0.73C28.15,22.27,27.91,21.95,27.49,21.95z M32.98,22.68v-1.97h-0.44v1.14
	c-0.16-0.2-0.39-0.32-0.71-0.32c-0.62,0-1.08,0.48-1.08,1.14c0,0.66,0.46,1.14,1.08,1.14c0.32,0,0.55-0.12,0.71-0.32v0.28h0.44
	V22.68z M31.91,21.95c-0.43,0-0.68,0.31-0.68,0.73c0,0.41,0.25,0.76,0.68,0.73c0.39,0,0.66-0.29,0.66-0.73
	C32.57,22.27,32.32,21.95,31.91,21.95z M31.59,5.58C28.75,2.75,24.27,2.37,21,4.71c-2.51-1.79-5.81-2.03-8.54-0.61
	c-2.73,1.41-4.45,4.23-4.45,7.31c0,3.08,1.72,5.9,4.45,7.31c2.74,1.41,6.03,1.18,8.54-0.61c2.51,1.79,5.81,2.03,8.54,0.61
	c2.74-1.41,4.45-4.23,4.45-7.31C34.01,9.22,33.14,7.13,31.59,5.58z M18.57,11.41c0,2.06,0.88,4.03,2.43,5.4
	c1.55-1.37,2.43-3.33,2.43-5.4c0-2.06-0.88-4.03-2.43-5.4C19.45,7.38,18.57,9.34,18.57,11.41z M16.23,18.61
	c-3.97,0-7.2-3.22-7.2-7.2c0-3.97,3.22-7.19,7.2-7.19c1.39-0.01,2.76,0.4,3.92,1.16c-1.67,1.56-2.62,3.74-2.62,6.03
	c0,2.29,0.95,4.47,2.62,6.03C18.99,18.2,17.63,18.61,16.23,18.61z M21.85,17.44c1.16,0.76,2.53,1.17,3.92,1.16
	c3.97,0,7.2-3.22,7.2-7.19c0-3.97-3.22-7.2-7.2-7.2c-1.4-0.01-2.76,0.4-3.92,1.17c1.67,1.56,2.62,3.74,2.62,6.03
	C24.47,13.7,23.52,15.88,21.85,17.44z"/>
</svg>
