<?xml version="1.0" encoding="utf-8"?>
<!-- Generator: Adobe Illustrator 24.0.2, SVG Export Plug-In . SVG Version: 6.00 Build 0)  -->
<svg version="1.1" id="Layer_1" xmlns="http://www.w3.org/2000/svg" xmlns:xlink="http://www.w3.org/1999/xlink" x="0px" y="0px"
	 viewBox="0 0 21 15" style="enable-background:new 0 0 21 15;" xml:space="preserve">
<style type="text/css">
	.Drop_x0020_Shadow{fill:none;}
	.Outer_x0020_Glow_x0020_5_x0020_pt{fill:none;}
	.Blue_x0020_Neon{fill:none;stroke:#8AACDA;stroke-width:7;stroke-linecap:round;stroke-linejoin:round;}
	.Chrome_x0020_Highlight{fill:url(#SVGID_1_);stroke:#FFFFFF;stroke-width:0.3629;stroke-miterlimit:1;}
	.Jive_GS{fill:#FFDD00;}
	.Alyssa_GS{fill:#A6D0E4;}
	.st0{fill:none;stroke:#000000;stroke-linecap:square;stroke-miterlimit:10;}
</style>
<linearGradient id="SVGID_1_" gradientUnits="userSpaceOnUse" x1="0" y1="0" x2="6.123234e-17" y2="-1">
	<stop  offset="0" style="stop-color:#656565"/>
	<stop  offset="0.618" style="stop-color:#1B1B1B"/>
	<stop  offset="0.6292" style="stop-color:#545454"/>
	<stop  offset="0.9831" style="stop-color:#3E3E3E"/>
</linearGradient>
<g>
	<path class="st0" d="M18.4,14.4H2.6c-1.1,0-2-0.9-2-2V2.6c0-1.1,0.9-2,2-2h15.7c1.1,0,2,0.9,2,2v9.7C20.4,13.5,19.5,14.4,18.4,14.4
		z"/>
	<path d="M20.4,2.9H0.6v3.4h19.7V2.9z"/>
	<path d="M16.7,8.9c-0.6,0-1.2,0.4-1.5,0.9c-0.3-0.5-0.9-0.9-1.5-0.9c-1,0-1.8,0.8-1.8,1.8c0,1,0.8,1.8,1.8,1.8
		c0.6,0,1.2-0.4,1.5-0.9c0.3,0.5,0.9,0.9,1.5,0.9c1,0,1.8-0.8,1.8-1.8C18.5,9.7,17.7,8.9,16.7,8.9z"/>
</g>
</svg>
