<?xml version="1.0" encoding="utf-8"?>
<!-- Generator: Adobe Illustrator 24.0.2, SVG Export Plug-In . SVG Version: 6.00 Build 0)  -->
<svg version="1.1" id="Layer_1" xmlns="http://www.w3.org/2000/svg" xmlns:xlink="http://www.w3.org/1999/xlink" x="0px" y="0px"
	 width="52px" height="52px" viewBox="0 0 52 52" style="enable-background:new 0 0 52 52;" xml:space="preserve">
<style type="text/css">
	.st0{fill:#5BA616;}
</style>
<g>
	<path class="st0" d="M49.4,39.1v-5.3c0-1.2-0.3-2.4-1-3.5c-0.7-1-1.6-1.9-2.7-2.4c0.3-0.3,0.7-0.6,1-0.9l0,0
		c0.2-0.2,0.3-0.4,0.2-0.6c0-0.2-0.1-0.5-0.3-0.6c-0.8-0.6-1.4-1.5-1.8-2.5c-0.3-1-0.3-2.1,0-3l0.1-0.2c0.2-0.7,0.3-1.4,0.3-2.1
		c0-0.5-0.4-0.8-0.8-0.8c-0.5,0-0.8,0.4-0.8,0.8c0,0.5-0.1,1.1-0.3,1.6l-0.1,0.2c-0.4,1.2-0.4,2.4-0.2,3.6c0.3,1.2,0.9,2.3,1.7,3.2
		c-0.3,0.2-0.6,0.4-0.9,0.7c0,0,0-0.1-0.1-0.1l0,0c-0.3-0.3-0.7-0.5-1.2-0.6l-0.9,0c-0.6,0-1.2,0.3-1.5,0.8h-1.8V26
		c2.1-1.4,3.3-3.7,3.3-6.2v-4.2h3.3c0.2,0,0.4-0.1,0.6-0.2c0.2-0.2,0.2-0.4,0.2-0.6c0-1.1-0.4-2.2-1.2-2.9C44,11,43,10.6,41.8,10.6
		V9.7c0-2-0.8-3.9-2.2-5.3c-1.4-1.4-3.3-2.2-5.3-2.2c-0.7,0-1.3,0.1-1.9,0.3c-0.4,0.1-0.7,0.6-0.6,1c0.1,0.4,0.6,0.7,1,0.6
		c0.5-0.1,1-0.2,1.5-0.2c1.1,0,2.2,0.3,3.1,0.9c0.9,0.6,1.7,1.4,2.1,2.4H29.1c0.3-0.6,0.6-1.1,1.1-1.6c0.4-0.3,0.4-0.8,0.2-1.1
		c-0.3-0.4-0.8-0.5-1.1-0.2c-0.1,0.1-0.1,0.1-0.2,0.2c-1.4,1.4-2.2,3.3-2.2,5.3v0.8c-1.1,0-2.2,0.4-2.9,1.2
		c-0.8,0.8-1.2,1.8-1.2,2.9c0,0.2,0.1,0.4,0.2,0.6c0.2,0.2,0.4,0.2,0.6,0.2H24c-0.3,0.5-0.5,1.1-0.5,1.7V18c0,0.7,0.1,1.4,0.3,2.1
		l0.1,0.2c0.3,1,0.3,2.1,0,3s-0.9,1.9-1.8,2.5c-0.2,0.1-0.3,0.4-0.3,0.6c0,0.2,0.1,0.5,0.2,0.6c0.3,0.3,0.6,0.6,1,0.9l0,0
		c-0.5,0.3-1,0.6-1.5,1c-0.3,0.3-0.4,0.8-0.1,1.2s0.8,0.4,1.2,0.1c0.5-0.5,1.1-0.8,1.8-1l0.7,9.8l-0.8,9.9c0,0.2,0.1,0.4,0.2,0.6
		c0.1,0.2,0.3,0.3,0.6,0.3c0,0,0,0,0.1,0c0.4,0,0.8-0.3,0.8-0.8l0.8-9.2h7.6c0.2,0,0.4-0.1,0.6-0.2c0.2-0.2,0.2-0.4,0.2-0.6v-5.4
		l0.6,0.3c1.1,0.5,2.4,0.5,3.5-0.1l-0.6,4.4h-0.9c-0.5,0-0.8,0.4-0.8,0.8s0.4,0.8,0.8,0.8h4.2l0.8,9.2c0,0.4,0.4,0.8,0.8,0.8
		c0,0,0,0,0.1,0c0.2,0,0.4-0.1,0.6-0.3c0.1-0.2,0.2-0.4,0.2-0.6l-0.4-4.9h2.9v5c0,0.5,0.4,0.8,0.8,0.8c0.5,0,0.8-0.4,0.8-0.8v-5
		c0.8,0,1.5-0.4,2-1c0.5-0.6,0.6-1.5,0.4-2.2C50.7,39.9,50.1,39.3,49.4,39.1L49.4,39.1z M47.7,33.7v5.2h-4.2l0.7-9.8
		c1,0.3,1.9,0.9,2.5,1.7C47.4,31.7,47.7,32.7,47.7,33.7L47.7,33.7z M28.8,28.9h1.4v1.7c0,0.3,0.2,0.6,0.5,0.8l1.7,0.9l-0.1,0
		c-0.6,0.3-1.2,0.3-1.8,0.1c-0.6-0.2-1.1-0.6-1.4-1.2L28.8,28.9z M34.3,31.3l-2.5-1.2v-3.3c1.6,0.6,3.4,0.6,5,0v3.3L34.3,31.3z
		 M28.5,9.7c0-0.3,0-0.6,0.1-0.8h11.5c0,0.3,0.1,0.6,0.1,0.8v0.8H28.5V9.7z M26.8,12.2h15c0.5,0,1,0.2,1.4,0.5
		c0.4,0.3,0.7,0.7,0.9,1.2h-6.5c-0.5,0-0.8,0.4-0.8,0.8c0,0.5,0.4,0.8,0.8,0.8h2.5v4.2c0,2.1-1.1,4-2.9,5.1c-1.8,1-4,1-5.8,0
		c-1.8-1-2.9-3-2.9-5.1v-4.2h5.8c0.5,0,0.8-0.4,0.8-0.8c0-0.5-0.4-0.8-0.8-0.8h-9.9c0.2-0.5,0.5-0.9,0.9-1.2
		C25.8,12.4,26.3,12.2,26.8,12.2L26.8,12.2z M25.5,19.7l-0.1-0.2c-0.2-0.5-0.3-1-0.3-1.6v-0.7c0-0.4,0.2-0.9,0.5-1.2
		c0.3-0.3,0.7-0.5,1.2-0.5v4.2c0,2.5,1.3,4.8,3.3,6.2v1.3h-1.8c-0.3-0.5-0.9-0.8-1.5-0.8l-0.9,0l0,0c-0.5,0-0.9,0.2-1.2,0.5
		c0,0,0,0.1-0.1,0.1c-0.3-0.2-0.6-0.4-0.9-0.7l0,0c0.9-0.9,1.5-2,1.7-3.2C25.9,22.1,25.9,20.9,25.5,19.7L25.5,19.7z M26.8,38.1
		l-0.7-10l0.9,0l1.4,10H26.8z M30.1,38.1l-0.6-4.4c1.1,0.5,2.4,0.6,3.5,0.1l0.6-0.3v4.6H30.1z M36.4,32.2l-0.1,0l1.7-0.9
		c0.3-0.1,0.5-0.4,0.5-0.8v-1.7h1.4l-0.3,2.2c-0.3,0.6-0.8,1-1.4,1.2C37.7,32.5,37,32.5,36.4,32.2L36.4,32.2z M40.3,38.1l1.4-10
		l0.9,0l-0.7,10L40.3,38.1z M48.5,42.3h-4.7l-0.1-1.7h4.9c0.5,0,0.8,0.4,0.8,0.8C49.4,41.9,49,42.3,48.5,42.3L48.5,42.3z"/>
	<path class="st0" d="M32.7,18.1c0,0.5-0.4,0.8-0.8,0.8S31,18.5,31,18.1c0-0.5,0.4-0.8,0.8-0.8C32.3,17.2,32.7,17.6,32.7,18.1"/>
	<path class="st0" d="M37.7,18.1c0,0.5-0.4,0.8-0.8,0.8c-0.5,0-0.8-0.4-0.8-0.8c0-0.5,0.4-0.8,0.8-0.8
		C37.3,17.2,37.7,17.6,37.7,18.1"/>
	<path class="st0" d="M38.5,43.1h-8.3c-0.5,0-0.8,0.4-0.8,0.8v5c0,0.5,0.4,0.8,0.8,0.8c0.5,0,0.8-0.4,0.8-0.8v-4.2h6.7v4.2
		c0,0.5,0.4,0.8,0.8,0.8c0.5,0,0.8-0.4,0.8-0.8v-5c0-0.2-0.1-0.4-0.2-0.6C38.9,43.2,38.7,43.1,38.5,43.1z"/>
	<path class="st0" d="M36.4,20.7c-0.6,0.4-1.3,0.6-2,0.6c-0.7,0-1.4-0.2-2-0.6c-0.2-0.1-0.4-0.2-0.6-0.1c-0.2,0-0.4,0.2-0.5,0.4
		c-0.3,0.4-0.2,0.9,0.2,1.2c0.9,0.6,1.9,0.9,3,0.9s2.1-0.3,3-0.9c0.4-0.3,0.5-0.8,0.2-1.2C37.3,20.6,36.8,20.5,36.4,20.7L36.4,20.7z
		"/>
	<path class="st0" d="M23.3,37.4c0.6-0.4,1-1,1-1.7c0-0.7-0.3-1.4-0.8-1.8c0-0.6-0.2-1.2-0.6-1.6c-0.4-0.6-1.1-0.9-1.8-0.9
		c-0.7,0-1.4,0.3-1.9,0.8c-0.4,0-0.7,0-1.1,0.2c0-0.3-0.1-0.6-0.4-0.7c-0.8-0.5-1.9-0.6-2.8-0.2c-0.1-1-0.7-1.8-1.5-2.3
		c-0.4-0.2-0.9-0.1-1.1,0.3c-0.2,0.4-0.1,0.9,0.3,1.1c0.3,0.2,0.5,0.4,0.6,0.7c0.1,0.3,0.2,0.6,0.1,0.9l0,0c-1-0.2-2,0.2-2.6,0.9
		c0.2-0.5,0.2-1.1,0.1-1.6l-0.2-0.8l0,0c0-0.2-0.2-0.4-0.3-0.5C10,30,9.8,30,9.5,30l-0.8,0.2c-1.1,0.2-2,0.9-2.4,1.9
		c-0.6-0.4-1.3-0.7-2-0.7c-0.5,0-0.8,0.4-0.8,0.8c0,0.5,0.4,0.8,0.8,0.8c0.6,0,1.1,0.3,1.4,0.8c-0.8,0-1.6,0.3-2.2,0.9
		C3,35.4,2.7,36.2,2.7,37c0,0.4,0.1,0.8,0.2,1.2c-0.7,0.2-1.3,0.7-1.6,1.3c-0.3,0.6-0.3,1.4,0,2.1s0.8,1.2,1.5,1.4L3.5,49
		c0.1,0.4,0.4,0.7,0.8,0.7H21c0.4,0,0.8-0.3,0.8-0.7l0.8-6.1c0.7-0.2,1.2-0.7,1.5-1.3c0.3-0.6,0.3-1.4,0-2c-0.3-0.6-0.8-1.2-1.5-1.4
		C23,38,23.2,37.7,23.3,37.4L23.3,37.4z M18.5,34.3c0-0.1,0.1-0.3,0.2-0.3c0.1-0.1,0.3-0.1,0.4,0c0.2,0.1,0.4,0.1,0.7,0
		c0.2-0.1,0.4-0.2,0.5-0.4c0.1-0.3,0.4-0.5,0.7-0.5c0.2,0,0.5,0.2,0.6,0.3c0.3,0.4,0.3,0.5,0.2,0.7c-0.1,0.2,0,0.4,0.1,0.6
		c0.1,0.2,0.3,0.3,0.5,0.4c0.2,0,0.3,0.2,0.3,0.4c0,0.2-0.1,0.3-0.3,0.4c-0.3,0.1-0.5,0.3-0.6,0.6c0,0.2-0.2,0.4-0.3,0.5
		c-0.4,0.3-0.8,0.6-1.1,1h-0.7l1.2-2.1c0.1-0.2,0.2-0.4,0.1-0.6s-0.2-0.4-0.4-0.5c-0.2-0.1-0.4-0.1-0.6-0.1
		c-0.2,0.1-0.4,0.2-0.5,0.4L18.3,37c-0.1-0.4-0.3-0.7-0.5-1l0,0c-0.1-0.2-0.2-0.4-0.1-0.7c0.1-0.2,0.2-0.4,0.4-0.5
		C18.3,34.7,18.5,34.5,18.5,34.3L18.5,34.3z M13.5,38.1c0-0.6,0.3-1.1,0.8-1.4c0.5-0.3,1.2-0.3,1.7,0c0.5,0.3,0.8,0.8,0.8,1.4H13.5z
		 M16.8,33.2c0.1,0.1,0.2,0.1,0.3,0.1c-0.1,0.1-0.1,0.2-0.2,0.4c-0.4,0.3-0.7,0.8-0.9,1.3c-0.1,0-0.3-0.1-0.4-0.1
		c-0.1-0.5-0.3-1-0.6-1.5l0,0c0.2-0.2,0.5-0.3,0.8-0.4C16.2,32.9,16.5,33,16.8,33.2L16.8,33.2z M12.3,34c0.4-0.1,0.8-0.1,1.1,0.1
		S14,34.6,14,35c-0.6,0.2-1.2,0.7-1.6,1.2c-0.4,0.6-0.6,1.2-0.6,1.9h-1C11,37.7,11,37.4,11,37c0-0.3-0.1-0.6-0.1-0.9l0.6-1.4l0,0
		C11.6,34.4,11.9,34.1,12.3,34L12.3,34z M9.7,34.5L9.7,34.5L9.7,34.5L9.7,34.5z M9,31.8L9,31.8c0.1,0.4,0,0.9-0.3,1.2
		c-0.3,0.4-0.6,0.6-1.1,0.7c-0.1-0.4,0-0.9,0.3-1.2C8.2,32.2,8.6,31.9,9,31.8L9,31.8z M6.5,35.7c0.2,0.1,0.5,0.1,0.7,0
		c0.5-0.2,1-0.2,1.4,0.1s0.7,0.7,0.7,1.2c0,0.4-0.1,0.7-0.2,1.1H4.6c-0.1-0.3-0.2-0.7-0.2-1.1c0-0.5,0.3-1,0.7-1.2
		C5.5,35.5,6,35.5,6.5,35.7L6.5,35.7z M10.2,43.1v1.7H8.5v-1.7H10.2z M20.9,43.1l-0.2,1.7h-2.2v-1.7H20.9z M16.8,44.8h-1.7v-1.7h1.7
		V44.8z M16.8,46.4v1.7h-1.7v-1.7H16.8z M13.5,48.1h-1.7v-1.7h1.7V48.1z M10.2,48.1H8.5v-1.7h1.7V48.1z M6.8,44.8H4.6l-0.2-1.7h2.4
		L6.8,44.8z M4.9,46.4h2v1.7H5.1L4.9,46.4z M18.5,48.1v-1.7h2l-0.2,1.7H18.5z M21.8,41.4h-7.5c-0.5,0-0.8,0.4-0.8,0.8v2.5h-1.7v-2.5
		c0-0.2-0.1-0.4-0.2-0.6s-0.4-0.2-0.6-0.2H3.5c-0.5,0-0.8-0.4-0.8-0.8c0-0.5,0.4-0.8,0.8-0.8h18.3c0.5,0,0.8,0.4,0.8,0.8
		C22.7,41.1,22.3,41.4,21.8,41.4z"/>
</g>
</svg>
