<?xml version="1.0" encoding="utf-8"?>
<!-- Generator: Adobe Illustrator 24.0.2, SVG Export Plug-In . SVG Version: 6.00 Build 0)  -->
<svg version="1.1" id="Layer_1" xmlns="http://www.w3.org/2000/svg" xmlns:xlink="http://www.w3.org/1999/xlink" x="0px" y="0px"
	 viewBox="0 0 700 700" style="enable-background:new 0 0 700 700;" xml:space="preserve">
<style type="text/css">
	.st0{fill:#074C07;}
</style>
<g>
	<path class="st0" d="M666.3,527.2V455c0-16.7-4.7-33-13.6-47.1c-8.9-14.1-21.6-25.3-36.7-32.4c4.5-3.8,8.9-7.7,13.1-11.8h0
		c2.3-2.3,3.5-5.5,3.3-8.8c-0.2-3.3-1.9-6.3-4.5-8.2c-11.3-8.4-19.6-20.2-23.8-33.7c-4.2-13.4-4.1-27.9,0.4-41.2l0.7-2.1
		c3.1-9.1,4.6-18.7,4.6-28.4c0-6.2-5.1-11.3-11.3-11.3s-11.3,5.1-11.3,11.3c0,7.2-1.2,14.4-3.5,21.2l-0.7,2.1
		c-5.3,15.7-6,32.5-2.3,48.7c3.7,16.1,11.9,30.9,23.5,42.7c-3.7,3.2-7.7,6-11.6,8.9c-0.3-0.3-0.5-0.7-0.8-1.1v0
		c-4.1-4.6-9.9-7.3-16.1-7.5l-12-0.4c-8.1-0.1-15.7,4.1-20,11h-24.3v-17.2c28.2-18.9,45.2-50.5,45.2-84.5v-56.5h45.2
		c3,0,5.9-1.2,8-3.3s3.3-5,3.3-8c0-15-6-29.3-16.6-39.9C594,147,579.6,141,564.6,141v-11.3c0-27-10.8-52.8-29.8-71.9
		C515.7,38.8,489.9,28,462.9,28c-8.9,0-17.7,1.2-26.3,3.4c-6,1.6-9.7,7.7-8.1,13.8c1.6,6,7.7,9.7,13.8,8.1
		c6.7-1.8,13.7-2.7,20.7-2.7c14.9,0,29.6,4.3,42.2,12.3c12.6,8,22.7,19.4,29.1,32.9H391.5c3.7-8,8.8-15.4,15-21.7
		c4.9-3.7,6-10.5,2.5-15.5c-3.5-5-10.3-6.3-15.4-3c-0.9,0.7-1.8,1.4-2.6,2.3c-19.1,19.1-29.7,44.9-29.7,71.9V141
		c-15,0-29.3,6-39.9,16.6c-10.6,10.6-16.5,25-16.6,39.9c0,3,1.2,5.9,3.3,8c2.1,2.1,5,3.3,8,3.3h6.3c-4.1,6.8-6.2,14.6-6.3,22.6v9.9
		c0,9.6,1.6,19.2,4.6,28.4l0.7,2.1c4.5,13.4,4.6,27.8,0.4,41.2s-12.5,25.2-23.8,33.7c-2.6,2-4.3,5-4.5,8.2c-0.2,3.3,1,6.5,3.3,8.8
		c4.2,4.2,8.6,8.1,13.1,11.9h0c-7.2,3.4-13.8,7.7-19.9,12.9c-4.7,4.1-5.2,11.2-1.1,15.9c4.1,4.7,11.2,5.2,15.9,1.1
		c7-6.1,15.3-10.6,24.2-13.2l9.6,132.8l-11.3,134.6c-0.3,3,0.7,6,2.6,8.3c1.9,2.3,4.7,3.7,7.7,4c0.3,0,0.6,0,0.9,0
		c5.9,0,10.8-4.5,11.3-10.4l10.4-125.2h102.6c3,0,5.9-1.2,8-3.3c2.1-2.1,3.3-5,3.3-8v-73.3l8.1,3.5c15.1,6.6,32.3,6.1,47.1-1.3
		l-8.5,59.7h-12.8c-6.2,0-11.3,5.1-11.3,11.3s5.1,11.3,11.3,11.3h57.4l10.4,125.2c0.5,5.9,5.4,10.4,11.3,10.4c0.3,0,0.6,0,0.9,0
		c3-0.2,5.8-1.7,7.7-4c1.9-2.3,2.9-5.3,2.6-8.3l-5.6-66.9h39.5v67.8c0,6.2,5.1,11.3,11.3,11.3s11.3-5.1,11.3-11.3v-67.8
		c10.7,0,20.8-5.1,27.2-13.7c6.4-8.6,8.3-19.8,5.2-30C684.3,538.9,676.4,530.8,666.3,527.2L666.3,527.2z M643.7,455v70.1h-56.5
		l9.5-132.8c13.6,4,25.5,12.2,33.9,23.5C639.2,427.1,643.7,440.8,643.7,455L643.7,455z M387.2,389.5h19.2v22.6
		c0,4.3,2.4,8.2,6.2,10.2l23.4,11.7l-1.5,0.6c-7.8,3.4-16.6,3.6-24.6,0.8c-8-2.8-14.6-8.6-18.6-16.1L387.2,389.5z M462.9,422.1
		L429,405.2V361c21.9,7.9,45.9,7.9,67.8,0v44.1L462.9,422.1z M383.9,129.7c0-3.8,0.3-7.6,0.9-11.3h156.4c0.6,3.7,0.9,7.5,0.9,11.3
		V141H383.9L383.9,129.7z M361.3,163.6h203.4c7,0,13.8,2.2,19.6,6.2c5.7,4,10.1,9.8,12.4,16.4h-88.5c-6.2,0-11.3,5.1-11.3,11.3
		s5.1,11.3,11.3,11.3H542v56.5c0,28.3-15.1,54.4-39.5,68.5c-24.5,14.1-54.6,14.1-79.1,0s-39.5-40.2-39.5-68.5v-56.5h79.1
		c6.2,0,11.3-5.1,11.3-11.3c0-6.2-5.1-11.3-11.3-11.3H329.3c2.3-6.6,6.7-12.3,12.4-16.4C347.4,165.8,354.3,163.6,361.3,163.6
		L361.3,163.6z M342.8,264.6l-0.7-2.1c-2.3-6.8-3.4-14-3.4-21.2v-9.9c0-6,2.4-11.7,6.6-16c4.2-4.2,10-6.6,16-6.6v56.5
		c0,33.9,17,65.6,45.2,84.5v17.2h-24.4c-4.3-6.9-11.9-11-20-11l-12,0.4h0c-6.1,0.2-12,2.9-16.1,7.4c-0.3,0.3-0.5,0.7-0.8,1.1
		c-3.9-2.9-7.9-5.6-11.6-8.9h0c11.6-11.8,19.8-26.5,23.5-42.7C348.9,297.1,348.1,280.3,342.8,264.6L342.8,264.6z M360.5,513.8
		l-9.7-134.9l12-0.4l19.3,135.3L360.5,513.8z M405,513.8l-8.6-59.9c14.7,7.4,32,7.9,47.1,1.4l8.1-3.5v62L405,513.8z M491.3,434.6
		l-1.5-0.6l23.4-11.6c3.8-1.9,6.3-5.9,6.2-10.2v-22.6h19.2l-4.2,29.7c-3.9,7.5-10.6,13.2-18.6,16.1
		C507.8,438.2,499.1,437.9,491.3,434.6L491.3,434.6z M543.8,513.8l19.3-135.3l12,0.3l-9.7,134.9L543.8,513.8z M655,570.3h-64
		l-1.9-22.6H655c6.2,0,11.3,5.1,11.3,11.3S661.2,570.3,655,570.3L655,570.3z"/>
	<path class="st0" d="M440.3,242.7c0,6.2-5.1,11.3-11.3,11.3c-6.2,0-11.3-5.1-11.3-11.3c0-6.2,5.1-11.3,11.3-11.3
		C435.3,231.4,440.3,236.4,440.3,242.7"/>
	<path class="st0" d="M508.1,242.7c0,6.2-5.1,11.3-11.3,11.3c-6.2,0-11.3-5.1-11.3-11.3c0-6.2,5.1-11.3,11.3-11.3
		C503.1,231.4,508.1,236.4,508.1,242.7"/>
	<path class="st0" d="M519.4,581.6h-113c-6.2,0-11.3,5.1-11.3,11.3v67.8c0,6.2,5.1,11.3,11.3,11.3c6.2,0,11.3-5.1,11.3-11.3v-56.5
		h90.4v56.5c0,6.2,5.1,11.3,11.3,11.3c6.2,0,11.3-5.1,11.3-11.3v-67.8c0-3-1.2-5.9-3.3-8C525.3,582.8,522.4,581.6,519.4,581.6z"/>
	<path class="st0" d="M490.6,278.5c-8.2,5.5-17.8,8.4-27.6,8.4c-9.8,0-19.4-2.9-27.6-8.4c-2.5-1.7-5.5-2.3-8.5-1.7
		c-2.9,0.6-5.5,2.3-7.2,4.8c-3.5,5.2-2.1,12.2,3.1,15.7c11.9,8,25.9,12.2,40.2,12.2s28.3-4.2,40.2-12.2c5.2-3.5,6.6-10.5,3.1-15.7
		C502.8,276.4,495.7,275,490.6,278.5L490.6,278.5z"/>
	<path class="st0" d="M313.5,504.2c8.1-4.8,13.3-13.3,13.9-22.7c0.5-9.4-3.7-18.5-11.3-24.1c-0.1-8-3.3-15.8-8.8-21.6
		c-6-7.6-15.2-12.2-25-12.4c-9.7-0.2-19.1,4-25.4,11.4c-5-0.5-10.1,0.4-14.7,2.5c0.1-4.1-2-7.9-5.5-10c-11.5-6.7-25.5-7.6-37.7-2.4
		c-1.7-13.2-9.5-24.8-21-31.5c-5.4-3.1-12.3-1.3-15.4,4.1c-3.1,5.4-1.3,12.3,4.1,15.4c3.7,2.1,6.5,5.3,8.3,9.1
		c1.7,3.8,2.2,8.1,1.3,12.2l-0.1,0.5c-13.1-2.3-26.5,2.1-35.7,11.7c2.3-7.1,2.8-14.6,1.5-22l-2.1-11.1h0c-0.5-3-2.2-5.6-4.7-7.3
		c-2.5-1.7-5.5-2.3-8.5-1.8l-11.1,2.1c-14.4,2.8-26.5,12.4-32.6,25.7c-7.7-5.8-17.1-9-26.8-9c-6.2,0-11.3,5.1-11.3,11.3
		c0,6.2,5.1,11.3,11.3,11.3c8.1,0,15.5,4.4,19.5,11.4c-11.1,0.1-21.7,4.6-29.6,12.4c-7.9,7.8-12.4,18.5-12.5,29.6
		c0.1,5.4,0.9,10.7,2.4,15.8c-9.4,2.5-17.3,9.1-21.6,17.9c-4.2,8.8-4.4,19-0.6,28s11.5,15.8,20.8,18.7L45,662.1
		c0.7,5.6,5.5,9.9,11.2,9.9h226c5.7,0,10.5-4.2,11.2-9.9l10.3-82.2c9.1-2.8,16.5-9.3,20.6-18c4-8.6,4.2-18.5,0.5-27.3
		c-3.7-8.8-10.9-15.6-19.9-18.7C308.6,512.7,311.5,508.7,313.5,504.2L313.5,504.2z M248.4,462.1c0.2-1.8,1.3-3.4,2.9-4.2
		c1.6-0.8,3.6-0.8,5.1,0.1c2.7,1.4,6,1.6,8.9,0.6c2.9-1,5.3-3.2,6.6-6c1.8-4,5.6-6.5,10-6.6c3.2,0.5,6.1,2.1,8.2,4.5
		c4.3,4.9,3.5,7.3,2.8,9.9c-0.8,2.9-0.5,6,0.9,8.6s3.9,4.6,6.8,5.4c2.4,0.6,4.1,2.8,4.1,5.3c0,2.5-1.6,4.7-4,5.4
		c-3.8,1.2-6.7,4.4-7.6,8.4c-0.6,2.8-2.2,5.2-4.5,6.9c-5.5,3.8-10.5,8.3-14.9,13.4h-10.1l16.8-28.1c1.6-2.6,2.1-5.7,1.4-8.6
		c-0.7-2.9-2.6-5.5-5.2-7.1c-2.6-1.6-5.7-2-8.7-1.3c-2.9,0.8-5.4,2.7-7,5.3l-15.4,25.6c-1.6-4.8-4-9.4-7.1-13.4l0.2-0.1
		c-1.8-2.6-2.4-5.8-1.6-8.9c0.7-3.1,2.7-5.7,5.5-7.2C245.8,468.5,247.9,465.5,248.4,462.1L248.4,462.1z M180.5,513.8
		c0-8.1,4.3-15.5,11.3-19.6c7-4,15.6-4,22.6,0s11.3,11.5,11.3,19.6H180.5z M225.4,447c1.4,0.8,2.9,1.3,4.4,1.4
		c-1,1.6-1.8,3.2-2.4,4.9c-5.6,4.4-9.6,10.5-11.6,17.4c-1.8-0.5-3.5-1-5.4-1.3c-1.1-7.2-4.1-14.1-8.7-19.7l0.3-0.3
		c3.1-2.8,7.1-4.5,11.3-4.9C217.5,444,221.8,444.9,225.4,447L225.4,447z M163.9,457.9c5-1.7,10.4-1.2,15,1.4c4.6,2.6,7.8,7,8.9,12.2
		c-8.7,3.1-16.3,8.9-21.6,16.5c-5.3,7.6-8.2,16.6-8.2,25.9h-13.3c1.3-4.7,1.9-9.6,2-14.4c-0.1-4.1-0.7-8.1-2-12l8-19.1h0
		C154.7,463.4,158.8,459.6,163.9,457.9L163.9,457.9z M129.3,465.4l-0.2,0.4l-0.1-0.1L129.3,465.4z M119.8,429L119.8,429
		c1.1,5.9-0.2,12-3.5,16.9c-3.4,5-8.6,8.4-14.5,9.5c-1.1-5.9,0.2-12,3.5-16.9C108.7,433.5,113.9,430.1,119.8,429L119.8,429z
		 M85.4,482c3,1.4,6.5,1.4,9.5,0c6.2-3,13.4-2.6,19.3,0.9c5.9,3.5,9.6,9.7,9.9,16.6c-0.2,4.9-1.3,9.8-3,14.4H59.2
		c-1.8-4.6-2.8-9.5-3-14.4c0.3-6.8,4-13.1,9.9-16.6C72,479.3,79.2,479,85.4,482L85.4,482z M135.3,581.6v22.6h-22.6v-22.6H135.3z
		 M280.7,581.6l-2.8,22.6h-29.6v-22.6H280.7z M225.7,604.2h-22.6v-22.6h22.6V604.2z M225.7,626.8v22.6h-22.6v-22.6L225.7,626.8z
		 M180.5,649.4h-22.6v-22.6h22.6V649.4z M135.3,649.4h-22.6v-22.6h22.6V649.4z M90.1,604.2H60.5l-2.8-22.6h32.4L90.1,604.2z
		 M63.4,626.8h26.7v22.6H66.2L63.4,626.8z M248.3,649.4v-22.6H275l-2.8,22.6H248.3z M293.5,559H191.8c-6.2,0-11.3,5.1-11.3,11.3
		v33.9h-22.6v-33.9c0-3-1.2-5.9-3.3-8c-2.1-2.1-5-3.3-8-3.3H44.9c-6.2,0-11.3-5.1-11.3-11.3c0-6.2,5.1-11.3,11.3-11.3h248.6
		c6.2,0,11.3,5.1,11.3,11.3C304.8,554,299.7,559,293.5,559z"/>
</g>
</svg>
